<svg xmlns:svg="http://www.w3.org/2000/svg" xmlns="http://www.w3.org/2000/svg" version="1.1" x="0" y="0" width="434.618" height="140.625" viewBox="0 0 434.618 140.625" enable-background="new 0 0 595.28 841.89" xml:space="preserve"><style>.s0{fill:#231f20;opacity:0.5;}.s1{fill:#f78d0a;}.s2{fill:#231f20;opacity:0.3;}.s3{fill:#231f20;}</style><g transform="translate(-78.41212,-222.8835)"><path d="m235.898 318.547c-2.423 0-5.021-0.233-6.218-0.438-0.555-0.088-0.846-0.351-0.846-1.022l0-19.294c0-0.672 0.292-0.935 0.846-1.021 1.197-0.205 3.795-0.438 6.218-0.438 5.809 0 9.312 3.065 9.312 9.225l0 3.766c0 6.157-3.503 9.222-9.312 9.222zm4.32-12.989c0-3.941-1.693-4.992-4.32-4.992-0.73 0-1.664 0.029-2.073 0.059l0 13.632c0.409 0.029 1.343 0.059 2.073 0.059 2.627 0 4.32-1.051 4.32-4.991l0-3.767zM261.411 318.167c-1.022 0.146-2.51 0.38-5.663 0.38-3.766 0-7.093-0.963-7.093-6.275l0-9.691c0-5.312 3.357-6.247 7.123-6.247 3.152 0 4.612 0.233 5.634 0.38 0.409 0.059 0.583 0.204 0.583 0.584l0 2.714c0 0.321-0.263 0.584-0.583 0.584l-5.926 0c-1.372 0-1.868 0.468-1.868 1.985l0 2.656 7.56 0c0.321 0 0.584 0.263 0.584 0.584l0 2.772c0 0.321-0.263 0.584-0.584 0.584l-7.56 0 0 3.095c0 1.518 0.496 1.984 1.868 1.984l5.926 0c0.321 0 0.583 0.263 0.583 0.584l0 2.715c-0.001 0.379-0.176 0.555-0.584 0.612zM272.97 310.695c-0.701 0-1.635-0.058-2.364-0.087l0 7.093c0 0.321-0.263 0.584-0.584 0.584l-3.766 0c-0.321 0-0.583-0.233-0.583-0.555l0-19.615c0-0.993 0.409-1.256 1.313-1.401 1.489-0.233 3.824-0.38 5.925-0.38 4.408 0 8.757 1.547 8.757 7.035l0 0.263c0 5.457-4.349 7.063-8.698 7.063zm3.736-7.326c0-2.072-1.284-2.89-3.736-2.89-0.409 0-2.014 0.058-2.364 0.087l0 5.955c0.321 0.029 2.043 0.059 2.364 0.059 2.598 0 3.736-0.964 3.736-2.948l0-0.263zM297.344 318.167c-1.022 0.146-2.51 0.38-5.663 0.38-3.766 0-7.093-0.963-7.093-6.275l0-9.691c0-5.312 3.357-6.247 7.123-6.247 3.152 0 4.612 0.233 5.634 0.38 0.409 0.059 0.583 0.204 0.583 0.584l0 2.714c0 0.321-0.263 0.584-0.583 0.584l-5.926 0c-1.372 0-1.868 0.468-1.868 1.985l0 2.656 7.561 0c0.321 0 0.583 0.263 0.583 0.584l0 2.772c0 0.321-0.263 0.584-0.583 0.584l-7.561 0 0 3.095c0 1.518 0.496 1.984 1.868 1.984l5.926 0c0.321 0 0.583 0.263 0.583 0.584l0 2.715c-0.001 0.379-0.176 0.555-0.584 0.612zM317.659 318.285l-2.86 0c-0.613 0-1.051-0.117-1.518-0.905l-6.656-11.501c-0.116-0.175-0.175-0.233-0.262-0.233-0.088 0-0.146 0.059-0.146 0.233l0 11.822c0 0.321-0.263 0.584-0.584 0.584l-3.444 0c-0.321 0-0.583-0.263-0.583-0.584l0-19.995c0-0.613 0.496-1.109 1.108-1.109l2.948 0c0.584 0 0.876 0.292 1.227 0.905l6.918 12.026c0.116 0.175 0.146 0.233 0.233 0.233 0.058 0 0.146-0.059 0.146-0.263l0-12.348c0-0.321 0.263-0.555 0.584-0.555l3.444 0c0.321 0 0.584 0.233 0.584 0.555l0 20.024c0 0.615-0.526 1.111-1.139 1.111zM329.948 318.547c-2.423 0-5.021-0.233-6.218-0.438-0.554-0.088-0.846-0.351-0.846-1.022l0-19.294c0-0.672 0.292-0.935 0.846-1.021 1.197-0.205 3.795-0.438 6.218-0.438 5.81 0 9.312 3.065 9.312 9.225l0 3.766c0 6.157-3.502 9.222-9.312 9.222zm4.321-12.989c0-3.941-1.692-4.992-4.32-4.992-0.729 0-1.663 0.029-2.072 0.059l0 13.632c0.409 0.029 1.343 0.059 2.072 0.059 2.628 0 4.32-1.051 4.32-4.991l0-3.767zM355.461 318.167c-1.021 0.146-2.511 0.38-5.663 0.38-3.766 0-7.093-0.963-7.093-6.275l0-9.691c0-5.312 3.356-6.247 7.122-6.247 3.152 0 4.612 0.233 5.634 0.38 0.408 0.059 0.584 0.204 0.584 0.584l0 2.714c0 0.321-0.263 0.584-0.584 0.584l-5.926 0c-1.372 0-1.868 0.468-1.868 1.985l0 2.656 7.561 0c0.321 0 0.584 0.263 0.584 0.584l0 2.772c0 0.321-0.263 0.584-0.584 0.584l-7.561 0 0 3.095c0 1.518 0.496 1.984 1.868 1.984l5.926 0c0.321 0 0.584 0.263 0.584 0.584l0 2.715c0 0.379-0.176 0.555-0.584 0.612zM375.777 318.285l-2.86 0c-0.613 0-1.051-0.117-1.518-0.905l-6.655-11.501c-0.117-0.175-0.176-0.233-0.263-0.233-0.088 0-0.146 0.059-0.146 0.233l0 11.822c0 0.321-0.263 0.584-0.584 0.584l-3.444 0c-0.321 0-0.584-0.263-0.584-0.584l0-19.995c0-0.613 0.496-1.109 1.109-1.109l2.948 0c0.584 0 0.876 0.292 1.227 0.905l6.918 12.026c0.116 0.175 0.146 0.233 0.233 0.233 0.059 0 0.146-0.059 0.146-0.263l0-12.348c0-0.321 0.263-0.555 0.584-0.555l3.444 0c0.321 0 0.584 0.233 0.584 0.555l0 20.024c0 0.615-0.525 1.111-1.139 1.111zM393.496 318.051c-0.613 0.204-2.307 0.496-4.35 0.496-4.438 0-8.641-2.335-8.641-9.282l0-3.678c0-6.947 4.203-9.254 8.641-9.254 2.043 0 3.736 0.292 4.35 0.496 0.408 0.117 0.642 0.234 0.642 0.643l0 2.831c0 0.351-0.175 0.584-0.555 0.584-0.029 0-0.059 0-0.087 0-1.109-0.087-2.715-0.233-4.32-0.233-2.015 0-3.62 1.051-3.62 4.934l0 3.678c0 3.882 1.605 4.933 3.62 4.933 1.605 0 3.211-0.146 4.32-0.233 0.028 0 0.058 0 0.087 0 0.38 0 0.555 0.233 0.555 0.584l0 2.831c0 0.408-0.234 0.553-0.642 0.67zM413.579 297.239l-4.408 10.1c-0.584 1.343-1.196 1.956-1.897 2.248l0 8.114c0 0.321-0.263 0.584-0.584 0.584l-3.823 0c-0.321 0-0.584-0.263-0.584-0.584l0-8.114c-0.7-0.292-1.343-0.905-1.927-2.248l-4.407-10.1c-0.029-0.059-0.029-0.146-0.029-0.204 0-0.234 0.175-0.438 0.467-0.438l4.203 0c0.292 0 0.496 0.233 0.584 0.496l3.152 8.232c0.146 0.379 0.233 0.438 0.438 0.438 0.204 0 0.292-0.059 0.438-0.438l3.152-8.232c0.088-0.263 0.292-0.496 0.584-0.496l4.203 0c0.292 0 0.468 0.204 0.468 0.438-0.001 0.057-0.001 0.145-0.03 0.204zM421.46 311.104l-5.663 0c-0.321 0-0.584-0.204-0.584-0.525l0-2.335c0-0.321 0.263-0.555 0.584-0.555l5.663 0c0.321 0 0.584 0.233 0.584 0.555l0 2.335c0 0.321-0.263 0.525-0.584 0.525z" class="s0"/><path d="m437.572 318.051c-0.613 0.204-2.307 0.496-4.35 0.496-4.438 0-8.641-2.335-8.641-9.282l0-3.678c0-6.947 4.203-9.254 8.641-9.254 2.043 0 3.736 0.292 4.35 0.496 0.408 0.117 0.642 0.234 0.642 0.643l0 2.831c0 0.351-0.175 0.584-0.555 0.584-0.029 0-0.059 0-0.087 0-1.109-0.087-2.715-0.233-4.32-0.233-2.015 0-3.62 1.051-3.62 4.934l0 3.678c0 3.882 1.605 4.933 3.62 4.933 1.605 0 3.211-0.146 4.32-0.233 0.028 0 0.058 0 0.087 0 0.38 0 0.555 0.233 0.555 0.584l0 2.831c0 0.408-0.234 0.553-0.642 0.67zM458.063 318.285l-3.824 0c-0.32 0-0.583-0.263-0.583-0.584l0-8.436-7.21 0 0 8.436c0 0.321-0.263 0.584-0.584 0.584l-3.824 0c-0.321 0-0.584-0.263-0.584-0.584l0-20.55c0-0.321 0.263-0.555 0.584-0.555l3.824 0c0.321 0 0.584 0.233 0.584 0.555l0 7.765 7.21 0 0-7.765c0-0.321 0.263-0.555 0.583-0.555l3.824 0c0.321 0 0.584 0.233 0.584 0.555l0 20.55c0 0.321-0.262 0.584-0.584 0.584zM475.402 318.167c-1.021 0.146-2.511 0.38-5.663 0.38-3.766 0-7.093-0.963-7.093-6.275l0-9.691c0-5.312 3.356-6.247 7.122-6.247 3.152 0 4.612 0.233 5.634 0.38 0.408 0.059 0.584 0.204 0.584 0.584l0 2.714c0 0.321-0.263 0.584-0.584 0.584l-5.926 0c-1.372 0-1.868 0.468-1.868 1.985l0 2.656 7.561 0c0.321 0 0.584 0.263 0.584 0.584l0 2.772c0 0.321-0.263 0.584-0.584 0.584l-7.561 0 0 3.095c0 1.518 0.496 1.984 1.868 1.984l5.926 0c0.321 0 0.584 0.263 0.584 0.584l0 2.715c0 0.379-0.175 0.555-0.584 0.612zM492.158 318.051c-0.613 0.204-2.307 0.496-4.35 0.496-4.438 0-8.641-2.335-8.641-9.282l0-3.678c0-6.947 4.203-9.254 8.641-9.254 2.043 0 3.736 0.292 4.35 0.496 0.408 0.117 0.642 0.234 0.642 0.643l0 2.831c0 0.351-0.175 0.584-0.555 0.584-0.029 0-0.059 0-0.087 0-1.109-0.087-2.715-0.233-4.32-0.233-2.015 0-3.62 1.051-3.62 4.934l0 3.678c0 3.882 1.605 4.933 3.62 4.933 1.605 0 3.211-0.146 4.32-0.233 0.028 0 0.058 0 0.087 0 0.38 0 0.555 0.233 0.555 0.584l0 2.831c0 0.408-0.234 0.553-0.642 0.67zM512.883 297.327l-6.947 9.866 6.977 10.479c0.088 0.117 0.117 0.233 0.117 0.321 0 0.175-0.146 0.292-0.409 0.292l-5.021 0c-0.351 0-0.496-0.175-0.643-0.408l-5.925-9.633 0 9.457c0 0.321-0.263 0.584-0.584 0.584l-3.824 0c-0.321 0-0.584-0.263-0.584-0.584l0-20.55c0-0.321 0.263-0.555 0.584-0.555l3.824 0c0.321 0 0.584 0.233 0.584 0.555l0 9.282 6.422-9.486c0.146-0.233 0.32-0.351 0.642-0.351l4.466 0c0.321 0 0.468 0.146 0.468 0.321-0.001 0.118-0.059 0.263-0.147 0.41z" fill="#f78d0a"/><path d="m146.36 236.564 0-13.68c-34.423 5.06-61.78 31.82-67.694 65.957l13.769 0c5.594-26.652 26.983-47.491 53.925-52.276z" class="s0"/><path d="m146.36 248.988 0-12.425c-26.942 4.786-48.331 25.625-53.926 52.276l12.512 0c5.178-19.909 21.217-35.428 41.414-39.852z" class="s2"/><path d="M185.201 283.276 174.994 293.506c0.299 0.579 0.641 1.12 0.891 1.745 0.939 2.353 1.411 4.924 1.411 7.703l0 0.183c0 2.842-0.471 5.41-1.411 7.704-0.936 2.303-2.234 4.292-3.895 5.983-1.664 1.694-3.674 2.989-6.024 3.894-2.36 0.905-4.961 1.362-7.799 1.362l-10.781 0 0-0.904-13.469 13.503 24.25 0c4.955 0 9.499-0.817 13.642-2.448 4.137-1.634 7.704-3.864 10.691-6.713 2.995-2.836 5.304-6.185 6.935-10.059 1.632-3.865 2.448-8.034 2.448-12.506l0-0.177c0-4.473-0.816-8.624-2.448-12.466-1.094-2.574-2.523-4.905-4.233-7.034z" fill="#f78d0a"/><path d="m147.385 283.835 10.781 0c2.838 0 5.439 0.466 7.799 1.404 2.35 0.937 4.359 2.254 6.025 3.938 1.217 1.244 2.175 2.728 3.004 4.33l10.207-10.23c-0.836-1.039-1.717-2.047-2.702-2.98-2.986-2.834-6.553-5.053-10.691-6.661-4.142-1.601-8.687-2.401-13.642-2.401l-24.741 0 0 63.445 0.491 0 13.469-13.503 0-37.342z" style="fill:#f78d0a;opacity:0.7"/><path d="m172.579 237.076 0 12.546c11.174 3.022 20.915 9.491 28.068 18.173l8.652-8.675C199.951 248.171 187.152 240.256 172.579 237.076Z" class="s2"/><path d="m172.579 223.295 0 13.78c14.573 3.18 27.373 11.096 36.72 22.044l9.557-9.58c-11.788-13.438-27.948-22.948-46.277-26.245zM92.129 315.054l-13.717 0c2.95 19.246 12.723 36.222 26.743 48.455l9.552-9.574C103.182 344.142 95.001 330.531 92.129 315.054Z" fill="#f78d0a"/><path d="m104.582 315.054-12.453 0c2.871 15.479 11.053 29.088 22.578 38.88l8.658-8.679c-9.258-7.594-16.014-18.128-18.783-30.202z" class="s2"/><path d="m494.695 336.447-0.234 1.312c-0.039 0.234-0.195 0.411-0.471 0.411-0.02 0-0.02 0-0.02 0-0.02 0-0.02 0-0.02 0-0.666-0.059-1.998-0.157-3.037-0.157-1.645 0-3.035 1-3.486 3.664l-0.49 2.88c-0.078 0.49-0.117 0.921-0.117 1.294 0 1.841 0.939 2.37 2.312 2.37 1.037 0 2.369-0.098 3.074-0.156l0.02 0c0 0 0 0 0.02 0 0.236 0 0.334 0.117 0.334 0.294 0 0.039-0.02 0.078-0.02 0.117l-0.234 1.312c-0.059 0.274-0.236 0.372-0.51 0.451-0.314 0.078-1.627 0.312-3.135 0.312-2.078 0-4.625-1.116-4.625-4.564 0-0.431 0.061-0.921 0.139-1.431l0.488-2.88c0.902-5.251 4.252-5.995 6.604-5.995 1.508 0 2.781 0.235 3.057 0.313 0.215 0.059 0.352 0.157 0.352 0.353 0 0.02 0 0.039 0 0.059 0 0.02-0.001 0.02-0.001 0.041zM503.24 348.613l-0.215 1.254c-0.039 0.274-0.176 0.353-0.471 0.412-0.607 0.137-2.332 0.273-3.369 0.273-1.744 0-3.879-0.587-3.879-3.095 0-0.274 0-0.588 0.059-0.921l1.803-10.306c0.039-0.216 0.254-0.392 0.469-0.392l1.939 0c0.197 0 0.314 0.137 0.314 0.313 0 0.039 0 0.059 0 0.078l-1.803 10.306c-0.039 0.254-0.059 0.47-0.059 0.666 0 0.764 0.373 1.019 1.293 1.019l3.605 0c0.195 0 0.312 0.138 0.312 0.313 0.002 0.041 0.002 0.06 0.002 0.08zM510.021 336.211l-2.43 13.793c-0.039 0.215-0.254 0.392-0.471 0.392l-1.939 0c-0.195 0-0.312-0.137-0.312-0.313 0-0.039 0-0.059 0-0.078l2.43-13.793c0.039-0.216 0.234-0.372 0.449-0.372l1.939 0c0.197 0 0.334 0.117 0.334 0.313 0 0.019 0 0.039 0 0.058z" fill="#231f20"/></g></svg>