<svg xmlns:svg="http://www.w3.org/2000/svg" xmlns="http://www.w3.org/2000/svg" version="1.1" x="0" y="0" width="445.865" height="140.625" viewBox="0 0 445.865 140.625" enable-background="new 0 0 595.28 841.89" xml:space="preserve"><style>.s0{fill:#231f20;opacity:0.5;}.s1{fill:#f78d0a;}.s2{fill:#231f20;opacity:0.3;}.s3{fill:#231f20;}</style><g transform="translate(-79.608992,-311.899)"><path d="m239.786 408.345c-2.498 0-5.175-0.241-6.409-0.452-0.572-0.09-0.873-0.361-0.873-1.053l0-19.89c0-0.692 0.301-0.963 0.873-1.053 1.234-0.21 3.912-0.451 6.409-0.451 5.988 0 9.599 3.16 9.599 9.509l0 3.881c-0.001 6.349-3.612 9.509-9.599 9.509zm4.453-13.39c0-4.062-1.746-5.146-4.454-5.146-0.752 0-1.715 0.03-2.136 0.06l0 14.052c0.421 0.03 1.384 0.06 2.136 0.06 2.708 0 4.454-1.083 4.454-5.146l0-3.88zM266.085 407.954c-1.053 0.15-2.588 0.391-5.837 0.391-3.882 0-7.312-0.993-7.312-6.47l0-9.99c0-5.477 3.46-6.439 7.342-6.439 3.25 0 4.754 0.241 5.808 0.391 0.421 0.06 0.602 0.21 0.602 0.602l0 2.798c0 0.331-0.271 0.602-0.602 0.602l-6.108 0c-1.414 0-1.926 0.481-1.926 2.046l0 2.738 7.793 0c0.331 0 0.602 0.271 0.602 0.602l0 2.858c0 0.331-0.271 0.602-0.602 0.602l-7.793 0 0 3.189c0 1.565 0.512 2.046 1.926 2.046l6.108 0c0.331 0 0.602 0.271 0.602 0.602l0 2.798c0 0.392-0.181 0.573-0.603 0.634zM278.002 400.25c-0.722 0-1.685-0.061-2.438-0.09l0 7.312c0 0.331-0.271 0.602-0.602 0.602l-3.882 0c-0.331 0-0.602-0.241-0.602-0.572l0-20.221c0-1.023 0.421-1.294 1.354-1.444 1.535-0.241 3.942-0.391 6.108-0.391 4.543 0 9.027 1.595 9.027 7.252l0 0.271c0.002 5.626-4.482 7.281-8.965 7.281zm3.852-7.552c0-2.137-1.324-2.979-3.852-2.979-0.421 0-2.076 0.06-2.438 0.09l0 6.138c0.331 0.03 2.106 0.06 2.438 0.06 2.678 0 3.852-0.993 3.852-3.039l0-0.27zM303.128 407.954c-1.054 0.15-2.588 0.391-5.837 0.391-3.882 0-7.312-0.993-7.312-6.47l0-9.99c0-5.477 3.46-6.439 7.342-6.439 3.25 0 4.754 0.241 5.808 0.391 0.421 0.06 0.602 0.21 0.602 0.602l0 2.798c0 0.331-0.271 0.602-0.602 0.602l-6.108 0c-1.414 0-1.926 0.481-1.926 2.046l0 2.738 7.793 0c0.332 0 0.603 0.271 0.603 0.602l0 2.858c0 0.331-0.271 0.602-0.603 0.602l-7.793 0 0 3.189c0 1.565 0.512 2.046 1.926 2.046l6.108 0c0.331 0 0.602 0.271 0.602 0.602l0 2.798c-0.002 0.392-0.182 0.573-0.603 0.634zM324.071 408.074l-2.948 0c-0.633 0-1.084-0.12-1.564-0.933l-6.861-11.856c-0.12-0.18-0.181-0.241-0.271-0.241-0.091 0-0.15 0.061-0.15 0.241l0 12.187c0 0.331-0.271 0.602-0.603 0.602l-3.551 0c-0.33 0-0.602-0.271-0.602-0.602l0-20.612c0-0.632 0.512-1.143 1.144-1.143l3.04 0c0.602 0 0.902 0.301 1.264 0.933l7.131 12.397c0.12 0.181 0.15 0.241 0.24 0.241 0.061 0 0.15-0.061 0.15-0.271l0-12.728c0-0.331 0.271-0.572 0.603-0.572l3.55 0c0.332 0 0.603 0.241 0.603 0.572l0 20.642c-0.001 0.631-0.543 1.143-1.175 1.143zM336.741 408.345c-2.498 0-5.176-0.241-6.409-0.452-0.572-0.09-0.873-0.361-0.873-1.053l0-19.89c0-0.692 0.301-0.963 0.873-1.053 1.233-0.21 3.911-0.451 6.409-0.451 5.987 0 9.599 3.16 9.599 9.509l0 3.881c0 6.349-3.611 9.509-9.599 9.509zm4.453-13.39c0-4.062-1.745-5.146-4.453-5.146-0.753 0-1.716 0.03-2.137 0.06l0 14.052c0.421 0.03 1.384 0.06 2.137 0.06 2.708 0 4.453-1.083 4.453-5.146l0-3.88zM363.04 407.954c-1.053 0.15-2.587 0.391-5.837 0.391-3.882 0-7.312-0.993-7.312-6.47l0-9.99c0-5.477 3.461-6.439 7.343-6.439 3.249 0 4.754 0.241 5.807 0.391 0.422 0.06 0.603 0.21 0.603 0.602l0 2.798c0 0.331-0.271 0.602-0.603 0.602l-6.107 0c-1.415 0-1.926 0.481-1.926 2.046l0 2.738 7.793 0c0.331 0 0.602 0.271 0.602 0.602l0 2.858c0 0.331-0.271 0.602-0.602 0.602l-7.793 0 0 3.189c0 1.565 0.511 2.046 1.926 2.046l6.107 0c0.331 0 0.603 0.271 0.603 0.602l0 2.798c-0.001 0.392-0.182 0.573-0.604 0.634zM383.984 408.074l-2.949 0c-0.632 0-1.083-0.12-1.564-0.933l-6.86-11.856c-0.121-0.18-0.181-0.241-0.271-0.241-0.09 0-0.15 0.061-0.15 0.241l0 12.187c0 0.331-0.271 0.602-0.602 0.602l-3.551 0c-0.331 0-0.602-0.271-0.602-0.602l0-20.612c0-0.632 0.512-1.143 1.144-1.143l3.039 0c0.602 0 0.902 0.301 1.264 0.933l7.132 12.397c0.12 0.181 0.15 0.241 0.24 0.241 0.061 0 0.15-0.061 0.15-0.271l0-12.728c0-0.331 0.271-0.572 0.602-0.572l3.551 0c0.331 0 0.602 0.241 0.602 0.572l0 20.642c-0.002 0.631-0.543 1.143-1.175 1.143zM402.25 407.833c-0.632 0.21-2.378 0.512-4.483 0.512-4.574 0-8.907-2.407-8.907-9.569l0-3.792c0-7.162 4.333-9.539 8.907-9.539 2.105 0 3.852 0.301 4.483 0.512 0.421 0.12 0.661 0.241 0.661 0.662l0 2.919c0 0.361-0.18 0.602-0.571 0.602-0.03 0-0.061 0-0.09 0-1.144-0.09-2.799-0.241-4.454-0.241-2.076 0-3.73 1.083-3.73 5.085l0 3.792c0 4.002 1.654 5.085 3.73 5.085 1.655 0 3.311-0.15 4.454-0.24 0.029 0 0.06 0 0.09 0 0.392 0 0.571 0.24 0.571 0.602l0 2.919c0 0.42-0.24 0.57-0.661 0.691zM422.952 386.378l-4.544 10.412c-0.602 1.384-1.233 2.016-1.956 2.317l0 8.365c0 0.331-0.271 0.602-0.602 0.602l-3.941 0c-0.331 0-0.603-0.271-0.603-0.602l0-8.365c-0.722-0.301-1.384-0.933-1.985-2.317l-4.544-10.412c-0.03-0.06-0.03-0.15-0.03-0.21 0-0.241 0.181-0.451 0.481-0.451l4.333 0c0.301 0 0.512 0.241 0.602 0.511l3.25 8.485c0.15 0.392 0.241 0.452 0.451 0.452 0.211 0 0.302-0.06 0.452-0.452l3.249-8.485c0.091-0.271 0.301-0.511 0.603-0.511l4.333 0c0.301 0 0.481 0.21 0.481 0.451 0 0.06 0 0.15-0.03 0.21zM431.077 400.671l-5.837 0c-0.331 0-0.602-0.21-0.602-0.542l0-2.407c0-0.331 0.271-0.572 0.602-0.572l5.837 0c0.331 0 0.603 0.241 0.603 0.572l0 2.407c0 0.332-0.272 0.542-0.603 0.542z" class="s0"/><path d="m447.688 407.833c-0.632 0.21-2.378 0.512-4.483 0.512-4.574 0-8.907-2.407-8.907-9.569l0-3.792c0-7.162 4.333-9.539 8.907-9.539 2.105 0 3.852 0.301 4.483 0.512 0.421 0.12 0.661 0.241 0.661 0.662l0 2.919c0 0.361-0.18 0.602-0.571 0.602-0.03 0-0.061 0-0.09 0-1.144-0.09-2.799-0.241-4.454-0.241-2.076 0-3.73 1.083-3.73 5.085l0 3.792c0 4.002 1.654 5.085 3.73 5.085 1.655 0 3.311-0.15 4.454-0.24 0.029 0 0.06 0 0.09 0 0.392 0 0.571 0.24 0.571 0.602l0 2.919c0 0.42-0.241 0.57-0.661 0.691zM468.812 408.074l-3.941 0c-0.331 0-0.602-0.271-0.602-0.602l0-8.696-7.433 0 0 8.696c0 0.331-0.271 0.602-0.602 0.602l-3.942 0c-0.331 0-0.602-0.271-0.602-0.602l0-21.184c0-0.331 0.271-0.572 0.602-0.572l3.942 0c0.331 0 0.602 0.241 0.602 0.572l0 8.004 7.433 0 0-8.004c0-0.331 0.271-0.572 0.602-0.572l3.941 0c0.331 0 0.602 0.241 0.602 0.572l0 21.184c-0.001 0.331-0.271 0.602-0.602 0.602zM486.687 407.954c-1.054 0.15-2.588 0.391-5.838 0.391-3.882 0-7.312-0.993-7.312-6.47l0-9.99c0-5.477 3.461-6.439 7.343-6.439 3.249 0 4.754 0.241 5.808 0.391 0.421 0.06 0.602 0.21 0.602 0.602l0 2.798c0 0.331-0.271 0.602-0.602 0.602l-6.108 0c-1.415 0-1.926 0.481-1.926 2.046l0 2.738 7.793 0c0.331 0 0.602 0.271 0.602 0.602l0 2.858c0 0.331-0.271 0.602-0.602 0.602l-7.793 0 0 3.189c0 1.565 0.511 2.046 1.926 2.046l6.108 0c0.33 0 0.602 0.271 0.602 0.602l0 2.798c-0.002 0.392-0.183 0.573-0.603 0.634zM503.959 407.833c-0.632 0.21-2.378 0.512-4.483 0.512-4.574 0-8.907-2.407-8.907-9.569l0-3.792c0-7.162 4.333-9.539 8.907-9.539 2.105 0 3.852 0.301 4.483 0.512 0.421 0.12 0.661 0.241 0.661 0.662l0 2.919c0 0.361-0.18 0.602-0.571 0.602-0.03 0-0.061 0-0.09 0-1.144-0.09-2.799-0.241-4.454-0.241-2.076 0-3.73 1.083-3.73 5.085l0 3.792c0 4.002 1.654 5.085 3.73 5.085 1.655 0 3.311-0.15 4.454-0.24 0.029 0 0.06 0 0.09 0 0.392 0 0.571 0.24 0.571 0.602l0 2.919c0 0.42-0.24 0.57-0.661 0.691zM525.324 386.469l-7.162 10.17 7.192 10.803c0.09 0.12 0.12 0.241 0.12 0.331 0 0.181-0.15 0.301-0.422 0.301l-5.175 0c-0.361 0-0.512-0.181-0.662-0.421l-6.108-9.93 0 9.75c0 0.331-0.271 0.602-0.602 0.602l-3.942 0c-0.331 0-0.602-0.271-0.602-0.602l0-21.184c0-0.331 0.271-0.572 0.602-0.572l3.942 0c0.331 0 0.602 0.241 0.602 0.572l0 9.568 6.62-9.779c0.15-0.241 0.33-0.361 0.661-0.361l4.604 0c0.331 0 0.481 0.15 0.481 0.331 0.002 0.12-0.059 0.27-0.149 0.421z" fill="#f78d0a"/><path d="m147.555 325.58 0-13.681c-34.422 5.059-61.779 31.82-67.693 65.957l13.769 0c5.594-26.651 26.983-47.489 53.924-52.276z" class="s0"/><path d="m147.555 338.005 0-12.425c-26.941 4.786-48.33 25.625-53.924 52.276l12.512 0c5.175-19.907 21.216-35.427 41.412-39.851z" class="s2"/><path d="m186.395 372.292-10.207 10.23c0.299 0.581 0.641 1.122 0.89 1.746 0.94 2.352 1.411 4.925 1.411 7.702l0 0.183c0 2.842-0.472 5.41-1.411 7.703-0.935 2.303-2.235 4.291-3.894 5.982-1.664 1.696-3.674 2.99-6.024 3.894-2.361 0.906-4.961 1.362-7.8 1.362l-10.78 0 0-0.902-13.469 13.502 24.249 0c4.955 0 9.499-0.818 13.642-2.447 4.137-1.635 7.704-3.864 10.691-6.714 2.995-2.836 5.303-6.184 6.935-10.058 1.632-3.865 2.448-8.033 2.448-12.506l0-0.176c0-4.472-0.816-8.626-2.448-12.467-1.095-2.575-2.525-4.906-4.234-7.035z" fill="#f78d0a"/><path d="m148.581 372.85 10.78 0c2.837 0 5.438 0.467 7.8 1.405 2.35 0.937 4.36 2.253 6.024 3.94 1.217 1.242 2.175 2.728 3.004 4.328l10.207-10.23c-0.836-1.04-1.717-2.046-2.701-2.979-2.987-2.835-6.554-5.054-10.691-6.661-4.142-1.599-8.686-2.4-13.642-2.4l-24.74 0 0 63.444 0.491 0 13.469-13.502 0-37.343z" style="fill:#f78d0a;opacity:0.7"/><path d="m173.772 326.093 0 12.546c11.174 3.022 20.915 9.491 28.067 18.173l8.652-8.674c-9.346-10.95-22.146-18.865-36.719-22.045z" class="s2"/><path d="m173.772 312.311 0 13.781c14.573 3.18 27.372 11.095 36.719 22.045l9.557-9.581c-11.788-13.438-27.945-22.949-46.276-26.246zM93.326 404.07l-13.717 0c2.951 19.244 12.723 36.219 26.743 48.454l9.551-9.575C104.378 433.157 96.196 419.547 93.326 404.07Z" fill="#f78d0a"/><path d="m105.778 404.07-12.452 0c2.871 15.477 11.053 29.087 22.577 38.879l8.658-8.678c-9.259-7.593-16.015-18.128-18.783-30.201z" class="s2"/><path d="m484.317 426.792-0.242 1.354c-0.041 0.242-0.202 0.424-0.485 0.424-0.021 0-0.021 0-0.021 0-0.02 0-0.02 0-0.02 0-0.688-0.061-2.061-0.162-3.132-0.162-1.697 0-3.132 1.031-3.596 3.778l-0.505 2.97c-0.081 0.506-0.122 0.949-0.122 1.334 0 1.898 0.97 2.443 2.384 2.443 1.071 0 2.445-0.101 3.172-0.161l0.021 0c0 0 0 0 0.021 0 0.242 0 0.344 0.122 0.344 0.304 0 0.04-0.021 0.08-0.021 0.121l-0.242 1.354c-0.062 0.283-0.243 0.384-0.525 0.465-0.323 0.08-1.677 0.322-3.232 0.322-2.142 0-4.769-1.15-4.769-4.707 0-0.444 0.061-0.949 0.142-1.475l0.505-2.97c0.93-5.414 4.385-6.183 6.809-6.183 1.556 0 2.869 0.243 3.151 0.324 0.223 0.061 0.364 0.161 0.364 0.363 0 0.021 0 0.041 0 0.061-0.001 0.021-0.001 0.021-0.001 0.041zM496.964 432.307l-0.465 2.728c-0.809 4.707-3.334 6.303-6.869 6.303-2.889 0-4.788-1.615-4.788-4.747 0-0.485 0.04-0.99 0.142-1.556l0.465-2.728c0.808-4.728 3.333-6.304 6.869-6.304 2.889 0 4.787 1.718 4.787 4.809-0.001 0.465-0.061 0.971-0.141 1.495zm-5.071-3.858c-2.101 0-3.151 1.111-3.616 3.858l-0.465 2.728c-0.101 0.586-0.142 1.091-0.142 1.516 0 1.758 0.809 2.344 2.384 2.344 2.142 0 3.172-1.232 3.617-3.859l0.464-2.728c0.102-0.565 0.142-1.07 0.142-1.495-0.001-1.738-0.789-2.364-2.384-2.364zM506.801 434.873l2.142 5.899c0.021 0.04 0.021 0.062 0.021 0.101 0 0.162-0.121 0.304-0.303 0.304l-2.323 0c-0.223 0-0.304-0.161-0.385-0.404l-1.919-5.394-0.404 0c-0.524 0-1.11-0.041-1.798-0.081l-0.949 5.475c-0.041 0.223-0.242 0.404-0.465 0.404l-2.021 0c-0.202 0-0.323-0.142-0.323-0.323 0-0.02 0-0.041 0-0.061l0-0.021 2.445-13.899c0.08-0.404 0.322-0.545 0.747-0.605 1.07-0.162 2.525-0.264 4-0.264 3.03 0 5.111 1.172 5.111 3.697 0 2.364-1.232 4.445-3.576 5.172zm-1.959-6.465c-0.425 0-1.435 0.041-1.799 0.081l-0.808 4.546c0.323 0.02 1.454 0.061 1.798 0.061 2.081 0 3.516-0.768 3.516-3.051 0-1.233-0.93-1.637-2.707-1.637zM522.64 426.711l-0.222 1.293c-0.041 0.222-0.263 0.403-0.485 0.403l-4.121 0c-1.172 0-1.656 0.404-1.899 1.738l-0.384 2.182 5.476 0c0.202 0 0.343 0.162 0.343 0.344 0 0.02 0 0.02 0 0.04l0 0.021-0.263 1.454c-0.04 0.222-0.263 0.404-0.484 0.404l-5.475 0-0.444 2.606c-0.041 0.262-0.062 0.484-0.062 0.666 0 0.809 0.404 1.07 1.354 1.07l4.121 0c0.202 0 0.323 0.143 0.323 0.324 0 0.02 0 0.04 0 0.061l0 0.02-0.223 1.293c-0.04 0.283-0.182 0.385-0.484 0.425-0.667 0.101-1.476 0.282-3.879 0.282-2.283 0-4.021-0.889-4.021-3.191 0-0.303 0.021-0.606 0.081-0.949l1.232-7.051c0.646-3.637 2.626-4.143 5.394-4.143 2.404 0 3.172 0.183 3.798 0.283 0.243 0.041 0.344 0.102 0.344 0.283 0 0.042-0.02 0.081-0.02 0.142z" fill="#231f20"/></g></svg>