<svg xmlns:svg="http://www.w3.org/2000/svg" xmlns="http://www.w3.org/2000/svg" version="1.1" x="0" y="0" width="440.243" height="140.625" viewBox="0 0 440.243 140.625" enable-background="new 0 0 595.28 841.89" xml:space="preserve"><style>.s0{fill:#231f20;opacity:0.5;}.s1{fill:#f78d0a;}.s2{fill:#231f20;opacity:0.3;}.s3{fill:#231f20;}</style><g transform="translate(-71.947187,-245.4855)"><path d="m230.779 341.541c-2.46 0-5.099-0.237-6.315-0.444-0.563-0.089-0.86-0.356-0.86-1.038l0-19.598c0-0.682 0.297-0.949 0.86-1.038 1.216-0.208 3.854-0.445 6.315-0.445 5.9 0 9.458 3.113 9.458 9.369l0 3.824c0 6.257-3.558 9.37-9.458 9.37zm4.388-13.193c0-4.002-1.72-5.07-4.388-5.07-0.741 0-1.69 0.029-2.105 0.059l0 13.846c0.415 0.03 1.364 0.059 2.105 0.059 2.668 0 4.388-1.067 4.388-5.07l0-3.824zM256.687 341.156c-1.038 0.148-2.55 0.385-5.751 0.385-3.825 0-7.205-0.978-7.205-6.374l0-9.843c0-5.396 3.41-6.345 7.234-6.345 3.202 0 4.684 0.237 5.722 0.386 0.415 0.059 0.593 0.208 0.593 0.593l0 2.757c0 0.326-0.267 0.593-0.593 0.593l-6.019 0c-1.393 0-1.897 0.475-1.897 2.016l0 2.698 7.679 0c0.326 0 0.593 0.267 0.593 0.593l0 2.816c0 0.326-0.267 0.593-0.593 0.593l-7.679 0 0 3.143c0 1.542 0.504 2.016 1.897 2.016l6.019 0c0.326 0 0.593 0.267 0.593 0.593l0 2.757c0 0.385-0.178 0.564-0.593 0.623zM268.423 333.566c-0.711 0-1.66-0.059-2.401-0.089l0 7.205c0 0.326-0.267 0.593-0.593 0.593l-3.824 0c-0.326 0-0.593-0.237-0.593-0.563l0-19.923c0-1.008 0.415-1.275 1.334-1.423 1.512-0.237 3.884-0.386 6.019-0.386 4.477 0 8.894 1.572 8.894 7.146l0 0.267c-0.001 5.543-4.418 7.173-8.836 7.173zm3.795-7.441c0-2.105-1.305-2.935-3.795-2.935-0.415 0-2.046 0.059-2.401 0.089l0 6.048c0.326 0.03 2.075 0.06 2.401 0.06 2.639 0 3.795-0.979 3.795-2.995l0-0.267zM293.175 341.156c-1.038 0.148-2.55 0.385-5.752 0.385-3.824 0-7.205-0.978-7.205-6.374l0-9.843c0-5.396 3.41-6.345 7.234-6.345 3.202 0 4.685 0.237 5.723 0.386 0.415 0.059 0.593 0.208 0.593 0.593l0 2.757c0 0.326-0.267 0.593-0.593 0.593l-6.019 0c-1.394 0-1.897 0.475-1.897 2.016l0 2.698 7.679 0c0.326 0 0.593 0.267 0.593 0.593l0 2.816c0 0.326-0.267 0.593-0.593 0.593l-7.679 0 0 3.143c0 1.542 0.504 2.016 1.897 2.016l6.019 0c0.326 0 0.593 0.267 0.593 0.593l0 2.757c0 0.385-0.178 0.564-0.593 0.623zM313.806 341.274l-2.906 0c-0.623 0-1.067-0.119-1.542-0.919l-6.76-11.681c-0.118-0.178-0.178-0.237-0.267-0.237-0.089 0-0.148 0.059-0.148 0.237l0 12.007c0 0.326-0.267 0.593-0.593 0.593l-3.499 0c-0.326 0-0.593-0.267-0.593-0.593l0-20.309c0-0.623 0.504-1.126 1.127-1.126l2.994 0c0.593 0 0.89 0.296 1.245 0.919l7.026 12.215c0.119 0.178 0.148 0.237 0.237 0.237 0.06 0 0.148-0.059 0.148-0.267l0-12.54c0-0.326 0.267-0.563 0.593-0.563l3.499 0c0.326 0 0.593 0.237 0.593 0.563l0 20.338c0.002 0.623-0.532 1.126-1.154 1.126zM326.282 341.541c-2.461 0-5.1-0.237-6.314-0.444-0.563-0.089-0.86-0.356-0.86-1.038l0-19.598c0-0.682 0.297-0.949 0.86-1.038 1.215-0.208 3.854-0.445 6.314-0.445 5.9 0 9.458 3.113 9.458 9.369l0 3.824c0 6.257-3.557 9.37-9.458 9.37zm4.388-13.193c0-4.002-1.72-5.07-4.388-5.07-0.741 0-1.689 0.029-2.104 0.059l0 13.846c0.415 0.03 1.363 0.059 2.104 0.059 2.668 0 4.388-1.067 4.388-5.07l0-3.824zM352.189 341.156c-1.037 0.148-2.55 0.385-5.752 0.385-3.824 0-7.204-0.978-7.204-6.374l0-9.843c0-5.396 3.409-6.345 7.234-6.345 3.202 0 4.685 0.237 5.722 0.386 0.415 0.059 0.593 0.208 0.593 0.593l0 2.757c0 0.326-0.267 0.593-0.593 0.593l-6.019 0c-1.394 0-1.897 0.475-1.897 2.016l0 2.698 7.679 0c0.326 0 0.593 0.267 0.593 0.593l0 2.816c0 0.326-0.267 0.593-0.593 0.593l-7.679 0 0 3.143c0 1.542 0.504 2.016 1.897 2.016l6.019 0c0.326 0 0.593 0.267 0.593 0.593l0 2.757c0 0.385-0.178 0.564-0.593 0.623zM372.82 341.274l-2.905 0c-0.623 0-1.067-0.119-1.542-0.919l-6.76-11.681c-0.118-0.178-0.178-0.237-0.267-0.237-0.089 0-0.148 0.059-0.148 0.237l0 12.007c0 0.326-0.267 0.593-0.593 0.593l-3.499 0c-0.326 0-0.593-0.267-0.593-0.593l0-20.309c0-0.623 0.504-1.126 1.127-1.126l2.994 0c0.593 0 0.89 0.296 1.245 0.919l7.026 12.215c0.119 0.178 0.148 0.237 0.237 0.237 0.06 0 0.148-0.059 0.148-0.267l0-12.54c0-0.326 0.267-0.563 0.593-0.563l3.499 0c0.326 0 0.593 0.237 0.593 0.563l0 20.338c0.002 0.623-0.533 1.126-1.155 1.126zM390.812 341.037c-0.623 0.208-2.342 0.504-4.418 0.504-4.506 0-8.775-2.372-8.775-9.428l0-3.736c0-7.056 4.27-9.398 8.775-9.398 2.076 0 3.795 0.297 4.418 0.504 0.415 0.119 0.652 0.237 0.652 0.652l0 2.875c0 0.356-0.178 0.593-0.563 0.593-0.029 0-0.06 0-0.089 0-1.127-0.089-2.757-0.237-4.388-0.237-2.046 0-3.677 1.067-3.677 5.01l0 3.736c0 3.943 1.631 5.01 3.677 5.01 1.631 0 3.261-0.148 4.388-0.237 0.029 0 0.06 0 0.089 0 0.386 0 0.563 0.237 0.563 0.593l0 2.876c0 0.417-0.237 0.564-0.652 0.683zM411.205 319.898l-4.478 10.258c-0.593 1.364-1.215 1.987-1.927 2.283l0 8.242c0 0.326-0.267 0.593-0.593 0.593l-3.884 0c-0.326 0-0.593-0.267-0.593-0.593l0-8.242c-0.712-0.296-1.364-0.919-1.957-2.283l-4.477-10.258c-0.03-0.06-0.03-0.148-0.03-0.208 0-0.237 0.178-0.445 0.475-0.445l4.27 0c0.296 0 0.504 0.237 0.593 0.504l3.202 8.361c0.147 0.385 0.237 0.445 0.444 0.445 0.208 0 0.297-0.06 0.444-0.445l3.202-8.361c0.089-0.267 0.297-0.504 0.593-0.504l4.27 0c0.297 0 0.475 0.208 0.475 0.445 0 0.06 0 0.149-0.029 0.208zM419.205 333.981l-5.752 0c-0.326 0-0.593-0.208-0.593-0.534l0-2.372c0-0.326 0.267-0.563 0.593-0.563l5.752 0c0.326 0 0.593 0.237 0.593 0.563l0 2.372c0 0.326-0.267 0.534-0.593 0.534z" class="s0"/><path d="m435.568 341.037c-0.623 0.208-2.342 0.504-4.418 0.504-4.506 0-8.775-2.372-8.775-9.428l0-3.736c0-7.056 4.27-9.398 8.775-9.398 2.076 0 3.795 0.297 4.418 0.504 0.415 0.119 0.652 0.237 0.652 0.652l0 2.875c0 0.356-0.178 0.593-0.563 0.593-0.029 0-0.06 0-0.089 0-1.127-0.089-2.757-0.237-4.388-0.237-2.046 0-3.677 1.067-3.677 5.01l0 3.736c0 3.943 1.631 5.01 3.677 5.01 1.631 0 3.261-0.148 4.388-0.237 0.029 0 0.06 0 0.089 0 0.386 0 0.563 0.237 0.563 0.593l0 2.876c0.001 0.417-0.237 0.564-0.652 0.683zM456.378 341.274l-3.884 0c-0.326 0-0.594-0.267-0.594-0.593l0-8.568-7.322 0 0 8.568c0 0.326-0.268 0.593-0.594 0.593l-3.884 0c-0.326 0-0.593-0.267-0.593-0.593l0-20.871c0-0.326 0.267-0.563 0.593-0.563l3.884 0c0.326 0 0.594 0.237 0.594 0.563l0 7.886 7.322 0 0-7.886c0-0.326 0.268-0.563 0.594-0.563l3.884 0c0.326 0 0.593 0.237 0.593 0.563l0 20.872c0 0.326-0.267 0.592-0.593 0.592zM473.983 341.156c-1.037 0.148-2.55 0.385-5.752 0.385-3.824 0-7.204-0.978-7.204-6.374l0-9.843c0-5.396 3.409-6.345 7.234-6.345 3.202 0 4.685 0.237 5.722 0.386 0.415 0.059 0.593 0.208 0.593 0.593l0 2.757c0 0.326-0.267 0.593-0.593 0.593l-6.019 0c-1.394 0-1.897 0.475-1.897 2.016l0 2.698 7.679 0c0.326 0 0.593 0.267 0.593 0.593l0 2.816c0 0.326-0.267 0.593-0.593 0.593l-7.679 0 0 3.143c0 1.542 0.504 2.016 1.897 2.016l6.019 0c0.326 0 0.593 0.267 0.593 0.593l0 2.757c0 0.385-0.178 0.564-0.593 0.623zM490.997 341.037c-0.623 0.208-2.342 0.504-4.418 0.504-4.506 0-8.775-2.372-8.775-9.428l0-3.736c0-7.056 4.27-9.398 8.775-9.398 2.076 0 3.795 0.297 4.418 0.504 0.415 0.119 0.652 0.237 0.652 0.652l0 2.875c0 0.356-0.178 0.593-0.563 0.593-0.029 0-0.06 0-0.089 0-1.127-0.089-2.757-0.237-4.388-0.237-2.046 0-3.677 1.067-3.677 5.01l0 3.736c0 3.943 1.631 5.01 3.677 5.01 1.631 0 3.261-0.148 4.388-0.237 0.029 0 0.06 0 0.089 0 0.386 0 0.563 0.237 0.563 0.593l0 2.876c0 0.417-0.237 0.564-0.652 0.683zM512.043 319.987l-7.057 10.021 7.086 10.644c0.089 0.119 0.118 0.237 0.118 0.326 0 0.178-0.147 0.296-0.415 0.296l-5.1 0c-0.355 0-0.504-0.178-0.651-0.415l-6.019-9.784 0 9.606c0 0.326-0.268 0.593-0.594 0.593l-3.884 0c-0.326 0-0.593-0.267-0.593-0.593l0-20.871c0-0.326 0.267-0.563 0.593-0.563l3.884 0c0.326 0 0.594 0.237 0.594 0.563l0 9.428 6.522-9.635c0.147-0.237 0.326-0.356 0.652-0.356l4.536 0c0.326 0 0.474 0.148 0.474 0.326 0.001 0.118-0.057 0.266-0.146 0.414z" fill="#f78d0a"/><path d="m139.893 259.165 0-13.679c-34.422 5.059-61.78 31.82-67.693 65.957l13.768 0C91.563 284.791 112.952 263.95 139.893 259.165Z" class="s0"/><path d="m139.893 271.592 0-12.426c-26.941 4.785-48.33 25.626-53.925 52.277l12.512 0c5.176-19.909 21.216-35.427 41.412-39.852z" class="s2"/><path d="m178.733 305.878-10.207 10.23c0.299 0.58 0.642 1.122 0.891 1.745 0.94 2.353 1.411 4.926 1.411 7.704l0 0.184c0 2.842-0.471 5.409-1.411 7.704-0.935 2.301-2.234 4.29-3.895 5.982-1.664 1.696-3.674 2.99-6.024 3.893-2.361 0.908-4.961 1.363-7.8 1.363l-10.78 0 0-0.902-13.469 13.504 24.249 0c4.955 0 9.5-0.819 13.642-2.448 4.137-1.634 7.705-3.865 10.691-6.714 2.995-2.839 5.304-6.186 6.935-10.058 1.631-3.865 2.448-8.034 2.448-12.506l0-0.177c0-4.472-0.816-8.626-2.448-12.466-1.094-2.573-2.524-4.906-4.233-7.036z" fill="#f78d0a"/><path d="m140.919 306.436 10.78 0c2.839 0 5.438 0.469 7.8 1.406 2.349 0.937 4.36 2.252 6.024 3.939 1.217 1.243 2.174 2.728 3.003 4.327l10.207-10.23c-0.837-1.038-1.717-2.044-2.701-2.978-2.986-2.835-6.554-5.055-10.691-6.662-4.142-1.599-8.687-2.399-13.642-2.399l-24.741 0 0 63.444 0.491 0 13.469-13.504 0-37.344z" style="fill:#f78d0a;opacity:0.7"/><path d="m166.111 259.679 0 12.546c11.174 3.021 20.915 9.492 28.067 18.172l8.652-8.674c-9.347-10.948-22.146-18.864-36.719-22.044z" class="s2"/><path d="m166.111 245.897 0 13.782c14.573 3.18 27.372 11.096 36.719 22.044l9.557-9.58C200.599 258.705 184.441 249.194 166.111 245.897ZM85.664 337.657l-13.716 0c2.95 19.244 12.723 36.219 26.743 48.454l9.551-9.575C96.716 366.743 88.535 353.135 85.664 337.657Z" fill="#f78d0a"/><path d="m98.116 337.657-12.452 0c2.871 15.478 11.053 29.085 22.578 38.879l8.657-8.677c-9.258-7.594-16.014-18.129-18.782-30.202z" class="s2"/><path d="m481.652 373.883-2.029 0c-0.179 0-0.299-0.159-0.318-0.338l-0.238-3.78-4.577 0-1.592 3.78c-0.079 0.179-0.259 0.338-0.438 0.338l-2.188 0c-0.18 0-0.299-0.1-0.299-0.259 0-0.06 0.021-0.119 0.04-0.179l5.452-12.476c0.815-1.851 2.029-2.029 3.124-2.029 1.015 0 2.268 0.358 2.407 2.029l1.074 12.476 0 0.04c0 0.219-0.178 0.398-0.418 0.398zm-3.123-12.296c-0.021-0.239-0.061-0.318-0.259-0.318-0.199 0-0.279 0.079-0.378 0.318l-2.468 5.909 3.502 0zM497.611 359.478l-2.408 13.61c-0.079 0.438-0.497 0.796-0.935 0.796l-1.87 0c-0.478 0-0.896 0-1.095-0.716l-2.846-9.69c-0.039-0.12-0.079-0.159-0.139-0.159-0.06 0-0.12 0.04-0.14 0.159l-1.751 10.008c-0.04 0.219-0.238 0.398-0.458 0.398l-1.69 0c-0.18 0-0.318-0.159-0.318-0.338l0-0.06 2.388-13.59c0.079-0.438 0.497-0.796 0.935-0.796l2.01 0c0.418 0 0.597 0.119 0.756 0.637l2.985 10.227c0.02 0.1 0.06 0.159 0.119 0.159 0.841-3.343 1.37-7.14 1.99-10.645 0.04-0.219 0.22-0.378 0.438-0.378l1.711 0c0.199 0 0.318 0.139 0.318 0.318zM510.128 359.478l-0.278 1.572c-0.04 0.219-0.239 0.358-0.458 0.358l-3.482 0-2.129 12.078c-0.04 0.219-0.259 0.398-0.478 0.398l-1.97 0c-0.199 0-0.318-0.139-0.318-0.318l0-0.08 2.129-12.078-3.481 0c-0.199 0-0.339-0.12-0.339-0.298l0-0.06 0.278-1.572c0.04-0.219 0.239-0.378 0.458-0.378l9.729 0c0.199 0 0.339 0.119 0.339 0.318z" fill="#231f20"/></g></svg>