<svg xmlns:svg="http://www.w3.org/2000/svg" xmlns="http://www.w3.org/2000/svg" version="1.1" x="0" y="0" width="140.625" height="140.625" viewBox="0 0 140.625 140.625" enable-background="new 0 0 595.28 841.89" xml:space="preserve">
<style>.s0{fill:#231f20;opacity:0.5;}.s1{fill:#f78d0a;}.s2{fill:#231f20;opacity:0.3;}</style>
<g transform="translate(-79.608992,-311.899)">
<path d="m147.555 325.58 0-13.681c-34.422 5.059-61.779 31.82-67.693 65.957l13.769 0c5.594-26.651 26.983-47.489 53.924-52.276z" class="s0"/>
<path d="m147.555 338.005 0-12.425c-26.941 4.786-48.33 25.625-53.924 52.276l12.512 0c5.175-19.907 21.216-35.427 41.412-39.851z" class="s2"/>
<path d="m186.395 372.292-10.207 10.23c0.299 0.581 0.641 1.122 0.89 1.746 0.94 2.352 1.411 4.925 1.411 7.702l0 0.183c0 2.842-0.472 5.41-1.411 7.703-0.935 2.303-2.235 4.291-3.894 5.982-1.664 1.696-3.674 2.99-6.024 3.894-2.361 0.906-4.961 1.362-7.8 1.362l-10.78 0 0-0.902-13.469 13.502 24.249 0c4.955 0 9.499-0.818 13.642-2.447 4.137-1.635 7.704-3.864 10.691-6.714 2.995-2.836 5.303-6.184 6.935-10.058 1.632-3.865 2.448-8.033 2.448-12.506l0-0.176c0-4.472-0.816-8.626-2.448-12.467-1.095-2.575-2.525-4.906-4.234-7.035z" fill="#f78d0a"/>
<path d="m148.581 372.85 10.78 0c2.837 0 5.438 0.467 7.8 1.405 2.35 0.937 4.36 2.253 6.024 3.94 1.217 1.242 2.175 2.728 3.004 4.328l10.207-10.23c-0.836-1.04-1.717-2.046-2.701-2.979-2.987-2.835-6.554-5.054-10.691-6.661-4.142-1.599-8.686-2.4-13.642-2.4l-24.74 0 0 63.444 0.491 0 13.469-13.502 0-37.343z" style="fill:#f78d0a;opacity:0.7"/>
<path d="m173.772 326.093 0 12.546c11.174 3.022 20.915 9.491 28.067 18.173l8.652-8.674c-9.346-10.95-22.146-18.865-36.719-22.045z" class="s2"/>
<path d="m173.772 312.311 0 13.781c14.573 3.18 27.372 11.095 36.719 22.045l9.557-9.581c-11.788-13.438-27.945-22.949-46.276-26.246zM93.326 404.07l-13.717 0c2.951 19.244 12.723 36.219 26.743 48.454l9.551-9.575C104.378 433.157 96.196 419.547 93.326 404.07Z" fill="#f78d0a"/>
<path d="m105.778 404.07-12.452 0c2.871 15.477 11.053 29.087 22.577 38.879l8.658-8.678c-9.259-7.593-16.015-18.128-18.783-30.201z" class="s2"/>
</g>
</svg>