<svg xmlns:svg="http://www.w3.org/2000/svg" xmlns="http://www.w3.org/2000/svg" version="1.1" x="0" y="0" width="436.791" height="140.625" viewBox="0 0 436.791 140.625" enable-background="new 0 0 595.28 841.89" xml:space="preserve"><style>.s0{fill:#231f20;opacity:0.5;}.s1{fill:#f78d0a;}.s2{fill:#231f20;opacity:0.3;}.s3{fill:#231f20;}</style><g transform="translate(-75.53976,-291.092)"><path d="m233.544 386.908c-2.437 0-5.05-0.235-6.253-0.44-0.558-0.089-0.851-0.353-0.851-1.028l0-19.405c0-0.675 0.293-0.939 0.851-1.027 1.204-0.205 3.817-0.44 6.253-0.44 5.842 0 9.365 3.083 9.365 9.277l0 3.787c0 6.193-3.523 9.276-9.365 9.276zm4.345-13.064c0-3.964-1.703-5.021-4.345-5.021-0.734 0-1.673 0.029-2.084 0.059l0 13.71c0.411 0.029 1.351 0.06 2.084 0.06 2.642 0 4.345-1.058 4.345-5.021l0-3.787zM259.208 386.526c-1.027 0.146-2.525 0.382-5.695 0.382-3.787 0-7.134-0.97-7.134-6.312l0-9.747c0-5.343 3.376-6.282 7.164-6.282 3.17 0 4.639 0.235 5.666 0.382 0.411 0.059 0.587 0.205 0.587 0.587l0 2.73c0 0.323-0.265 0.587-0.587 0.587l-5.959 0c-1.38 0-1.879 0.47-1.879 1.996l0 2.672 7.604 0c0.323 0 0.587 0.265 0.587 0.587l0 2.789c0 0.323-0.264 0.587-0.587 0.587l-7.604 0 0 3.112c0 1.526 0.499 1.996 1.879 1.996l5.959 0c0.323 0 0.587 0.265 0.587 0.588l0 2.729c-0.001 0.382-0.177 0.559-0.588 0.617zM270.837 379.011c-0.705 0-1.644-0.059-2.378-0.088l0 7.134c0 0.322-0.264 0.587-0.587 0.587l-3.787 0c-0.323 0-0.587-0.234-0.587-0.558l0-19.729c0-0.998 0.411-1.263 1.321-1.409 1.498-0.235 3.846-0.382 5.96-0.382 4.433 0 8.807 1.556 8.807 7.075l0 0.265c-0.001 5.49-4.375 7.105-8.749 7.105zm3.758-7.369c0-2.084-1.292-2.906-3.758-2.906-0.411 0-2.026 0.059-2.378 0.088l0 5.989c0.323 0.029 2.055 0.059 2.378 0.059 2.613 0 3.758-0.969 3.758-2.965l0-0.265zM295.355 386.526c-1.027 0.146-2.525 0.382-5.695 0.382-3.787 0-7.134-0.97-7.134-6.312l0-9.747c0-5.343 3.376-6.282 7.164-6.282 3.17 0 4.639 0.235 5.666 0.382 0.411 0.059 0.587 0.205 0.587 0.587l0 2.73c0 0.323-0.265 0.587-0.587 0.587l-5.959 0c-1.38 0-1.879 0.47-1.879 1.996l0 2.672 7.604 0c0.323 0 0.587 0.265 0.587 0.587l0 2.789c0 0.323-0.264 0.587-0.587 0.587l-7.604 0 0 3.112c0 1.526 0.499 1.996 1.879 1.996l5.959 0c0.323 0 0.587 0.265 0.587 0.588l0 2.729c-0.001 0.382-0.177 0.559-0.588 0.617zM315.792 386.644l-2.877 0c-0.616 0-1.057-0.117-1.526-0.91l-6.693-11.567c-0.117-0.176-0.177-0.234-0.265-0.234-0.088 0-0.146 0.059-0.146 0.234l0 11.891c0 0.322-0.265 0.587-0.587 0.587l-3.465 0c-0.322 0-0.587-0.265-0.587-0.587l0-20.11c0-0.616 0.499-1.115 1.115-1.115l2.966 0c0.587 0 0.881 0.293 1.232 0.91l6.958 12.095c0.117 0.177 0.147 0.235 0.235 0.235 0.059 0 0.146-0.059 0.146-0.265l0-12.418c0-0.323 0.264-0.558 0.587-0.558l3.464 0c0.323 0 0.588 0.234 0.588 0.558l0 20.14c0.001 0.615-0.529 1.114-1.145 1.114zM328.156 386.908c-2.437 0-5.049-0.235-6.253-0.44-0.558-0.089-0.851-0.353-0.851-1.028l0-19.405c0-0.675 0.293-0.939 0.851-1.027 1.204-0.205 3.816-0.44 6.253-0.44 5.843 0 9.365 3.083 9.365 9.277l0 3.787c0 6.193-3.522 9.276-9.365 9.276zm4.346-13.064c0-3.964-1.703-5.021-4.346-5.021-0.733 0-1.673 0.029-2.084 0.059l0 13.71c0.411 0.029 1.351 0.06 2.084 0.06 2.643 0 4.346-1.058 4.346-5.021l0-3.787zM353.82 386.526c-1.027 0.146-2.524 0.382-5.695 0.382-3.787 0-7.134-0.97-7.134-6.312l0-9.747c0-5.343 3.376-6.282 7.163-6.282 3.171 0 4.639 0.235 5.666 0.382 0.411 0.059 0.588 0.205 0.588 0.587l0 2.73c0 0.323-0.265 0.587-0.588 0.587l-5.959 0c-1.38 0-1.879 0.47-1.879 1.996l0 2.672 7.604 0c0.323 0 0.587 0.265 0.587 0.587l0 2.789c0 0.323-0.264 0.587-0.587 0.587l-7.604 0 0 3.112c0 1.526 0.499 1.996 1.879 1.996l5.959 0c0.323 0 0.588 0.265 0.588 0.588l0 2.729c0 0.382-0.177 0.559-0.588 0.617zM374.258 386.644l-2.877 0c-0.617 0-1.058-0.117-1.527-0.91l-6.693-11.567c-0.117-0.176-0.176-0.234-0.264-0.234-0.089 0-0.147 0.059-0.147 0.234l0 11.891c0 0.322-0.264 0.587-0.587 0.587l-3.464 0c-0.323 0-0.588-0.265-0.588-0.587l0-20.11c0-0.616 0.499-1.115 1.116-1.115l2.965 0c0.587 0 0.881 0.293 1.233 0.91l6.958 12.095c0.117 0.177 0.146 0.235 0.234 0.235 0.059 0 0.146-0.059 0.146-0.265l0-12.418c0-0.323 0.265-0.558 0.588-0.558l3.464 0c0.323 0 0.587 0.234 0.587 0.558l0 20.14c0 0.615-0.528 1.114-1.144 1.114zM392.082 386.409c-0.616 0.205-2.319 0.499-4.374 0.499-4.463 0-8.69-2.349-8.69-9.336l0-3.699c0-6.987 4.228-9.307 8.69-9.307 2.055 0 3.758 0.294 4.374 0.499 0.411 0.117 0.646 0.235 0.646 0.646l0 2.849c0 0.352-0.177 0.587-0.559 0.587-0.029 0-0.059 0-0.088 0-1.115-0.088-2.73-0.235-4.345-0.235-2.025 0-3.641 1.057-3.641 4.962l0 3.699c0 3.904 1.615 4.961 3.641 4.961 1.614 0 3.229-0.146 4.345-0.234 0.029 0 0.059 0 0.088 0 0.382 0 0.559 0.234 0.559 0.587l0 2.848c0.001 0.41-0.235 0.556-0.646 0.674zM412.284 365.477l-4.433 10.158c-0.588 1.35-1.204 1.967-1.908 2.26l0 8.162c0 0.322-0.265 0.587-0.588 0.587l-3.846 0c-0.323 0-0.587-0.265-0.587-0.587l0-8.162c-0.705-0.293-1.351-0.91-1.938-2.26l-4.434-10.158c-0.029-0.059-0.029-0.146-0.029-0.206 0-0.234 0.177-0.439 0.47-0.439l4.228 0c0.294 0 0.499 0.234 0.587 0.499l3.171 8.278c0.147 0.382 0.235 0.44 0.44 0.44 0.206 0 0.294-0.059 0.44-0.44l3.171-8.278c0.088-0.265 0.293-0.499 0.587-0.499l4.228 0c0.294 0 0.47 0.205 0.47 0.439 0 0.059 0 0.147-0.029 0.206zM420.215 379.422l-5.695 0c-0.322 0-0.587-0.206-0.587-0.528l0-2.35c0-0.322 0.265-0.558 0.587-0.558l5.695 0c0.323 0 0.588 0.235 0.588 0.558l0 2.35c0 0.322-0.265 0.528-0.588 0.528z" class="s0"/><path d="m436.423 386.409c-0.616 0.205-2.319 0.499-4.374 0.499-4.463 0-8.69-2.349-8.69-9.336l0-3.699c0-6.987 4.228-9.307 8.69-9.307 2.055 0 3.758 0.294 4.374 0.499 0.411 0.117 0.646 0.235 0.646 0.646l0 2.849c0 0.352-0.176 0.587-0.558 0.587-0.029 0-0.059 0-0.088 0-1.115-0.088-2.73-0.235-4.345-0.235-2.025 0-3.641 1.057-3.641 4.962l0 3.699c0 3.904 1.615 4.961 3.641 4.961 1.614 0 3.229-0.146 4.345-0.234 0.029 0 0.059 0 0.088 0 0.382 0 0.558 0.234 0.558 0.587l0 2.848c-0.001 0.41-0.235 0.556-0.646 0.674zM457.036 386.644l-3.846 0c-0.323 0-0.587-0.265-0.587-0.587l0-8.484-7.252 0 0 8.484c0 0.322-0.264 0.587-0.587 0.587l-3.846 0c-0.323 0-0.588-0.265-0.588-0.587l0-20.668c0-0.323 0.265-0.558 0.588-0.558l3.846 0c0.323 0 0.587 0.234 0.587 0.558l0 7.809 7.252 0 0-7.809c0-0.323 0.264-0.558 0.587-0.558l3.846 0c0.323 0 0.587 0.234 0.587 0.558l0 20.668c0 0.322-0.264 0.587-0.587 0.587zM474.479 386.526c-1.027 0.146-2.524 0.382-5.695 0.382-3.787 0-7.134-0.97-7.134-6.312l0-9.747c0-5.343 3.376-6.282 7.163-6.282 3.171 0 4.639 0.235 5.666 0.382 0.411 0.059 0.588 0.205 0.588 0.587l0 2.73c0 0.323-0.265 0.587-0.588 0.587l-5.959 0c-1.38 0-1.879 0.47-1.879 1.996l0 2.672 7.604 0c0.323 0 0.587 0.265 0.587 0.587l0 2.789c0 0.323-0.264 0.587-0.587 0.587l-7.604 0 0 3.112c0 1.526 0.499 1.996 1.879 1.996l5.959 0c0.323 0 0.588 0.265 0.588 0.588l0 2.729c-0.001 0.382-0.177 0.559-0.588 0.617zM491.335 386.409c-0.616 0.205-2.319 0.499-4.374 0.499-4.463 0-8.69-2.349-8.69-9.336l0-3.699c0-6.987 4.228-9.307 8.69-9.307 2.055 0 3.758 0.294 4.374 0.499 0.411 0.117 0.646 0.235 0.646 0.646l0 2.849c0 0.352-0.176 0.587-0.558 0.587-0.029 0-0.059 0-0.088 0-1.115-0.088-2.73-0.235-4.345-0.235-2.025 0-3.641 1.057-3.641 4.962l0 3.699c0 3.904 1.615 4.961 3.641 4.961 1.614 0 3.229-0.146 4.345-0.234 0.029 0 0.059 0 0.088 0 0.382 0 0.558 0.234 0.558 0.587l0 2.848c-0.001 0.41-0.235 0.556-0.646 0.674zM512.183 365.564l-6.986 9.923 7.017 10.54c0.088 0.117 0.117 0.234 0.117 0.322 0 0.177-0.147 0.294-0.411 0.294l-5.05 0c-0.353 0-0.499-0.176-0.646-0.411l-5.96-9.688 0 9.513c0 0.322-0.264 0.587-0.587 0.587l-3.846 0c-0.323 0-0.588-0.265-0.588-0.587l0-20.668c0-0.323 0.265-0.558 0.588-0.558l3.846 0c0.323 0 0.587 0.234 0.587 0.558l0 9.336 6.459-9.542c0.146-0.234 0.322-0.352 0.646-0.352l4.492 0c0.322 0 0.47 0.146 0.47 0.322-0.001 0.118-0.06 0.265-0.148 0.411z" fill="#f78d0a"/><path d="m143.486 304.774 0-13.682c-34.422 5.059-61.78 31.821-67.693 65.957l13.768 0c5.594-26.651 26.983-47.49 53.925-52.275z" class="s0"/><path d="m143.486 317.199 0-12.425c-26.941 4.785-48.33 25.624-53.925 52.275l12.512 0c5.175-19.906 21.215-35.427 41.412-39.851z" class="s2"/><path d="m182.326 351.487-10.207 10.229c0.3 0.58 0.641 1.122 0.89 1.748 0.94 2.351 1.411 4.924 1.411 7.701l0 0.183c0 2.842-0.471 5.411-1.411 7.704-0.935 2.305-2.235 4.292-3.894 5.982-1.664 1.696-3.674 2.99-6.024 3.896-2.361 0.905-4.962 1.36-7.8 1.36l-10.78 0 0-0.902-13.469 13.501 24.25 0c4.954 0 9.499-0.817 13.642-2.446 4.137-1.634 7.705-3.864 10.691-6.715 2.995-2.834 5.303-6.183 6.935-10.058 1.632-3.866 2.448-8.032 2.448-12.505l0-0.176c0-4.472-0.816-8.625-2.448-12.467-1.094-2.577-2.524-4.908-4.234-7.036z" fill="#f78d0a"/><path d="m144.512 352.044 10.78 0c2.838 0 5.439 0.467 7.8 1.404 2.349 0.939 4.359 2.255 6.024 3.94 1.217 1.243 2.174 2.727 3.004 4.327l10.207-10.229c-0.836-1.04-1.718-2.048-2.702-2.98-2.986-2.834-6.554-5.054-10.691-6.661-4.142-1.6-8.687-2.401-13.642-2.401l-24.741 0 0 63.444 0.491 0 13.469-13.501 0-37.344z" style="fill:#f78d0a;opacity:0.7"/><path d="m169.705 305.286 0 12.546c11.173 3.021 20.914 9.49 28.067 18.174l8.652-8.674c-9.347-10.95-22.147-18.865-36.719-22.045z" class="s2"/><path d="m169.705 291.504 0 13.781c14.573 3.18 27.372 11.096 36.719 22.046l9.557-9.581C204.192 304.312 188.034 294.8 169.705 291.504ZM89.257 383.264l-13.717 0c2.95 19.244 12.723 36.219 26.743 48.453l9.551-9.575C100.31 412.349 92.128 398.739 89.257 383.264Z" fill="#f78d0a"/><path d="m101.71 383.264-12.453 0c2.871 15.475 11.053 29.085 22.578 38.879l8.657-8.678c-9.258-7.593-16.014-18.126-18.782-30.201z" class="s2"/><path d="m440.271 404.673-2.602 14.688c-0.375 2.09-1.518 2.878-3.646 2.878-0.592 0-1.42-0.118-1.559-0.157-0.098-0.04-0.158-0.118-0.158-0.217 0-0.02 0-0.04 0-0.06l0.258-1.399c0.039-0.217 0.236-0.355 0.453-0.355l1.301 0c0.355 0 0.512-0.118 0.611-0.689l2.602-14.688c0.039-0.217 0.236-0.374 0.453-0.374l1.953 0c0.197 0 0.334 0.138 0.334 0.315 0 0.019 0 0.039 0 0.058zM451.883 404.832l-0.217 1.262c-0.039 0.217-0.256 0.395-0.473 0.395l-4.021 0c-1.143 0-1.617 0.394-1.854 1.695l-0.375 2.129 5.344 0c0.197 0 0.334 0.157 0.334 0.335 0 0.02 0 0.02 0 0.039l0 0.021-0.256 1.419c-0.039 0.217-0.256 0.395-0.473 0.395l-5.342 0-0.434 2.543c-0.041 0.257-0.061 0.474-0.061 0.65 0 0.789 0.395 1.045 1.322 1.045l4.021 0c0.197 0 0.314 0.138 0.314 0.315 0 0.02 0 0.04 0 0.06l0 0.02-0.217 1.262c-0.039 0.276-0.178 0.374-0.473 0.414-0.65 0.099-1.439 0.276-3.785 0.276-2.229 0-3.924-0.868-3.924-3.115 0-0.296 0.02-0.592 0.08-0.927l1.201-6.88c0.631-3.549 2.562-4.042 5.264-4.042 2.346 0 3.096 0.178 3.707 0.276 0.236 0.039 0.336 0.099 0.336 0.275 0.003 0.039-0.018 0.078-0.018 0.138zM465.662 404.673l-2.385 13.484c-0.078 0.435-0.492 0.789-0.926 0.789l-1.854 0c-0.473 0-0.887 0-1.084-0.71l-2.82-9.601c-0.039-0.118-0.078-0.158-0.137-0.158-0.061 0-0.119 0.04-0.139 0.158l-1.734 9.916c-0.039 0.217-0.236 0.395-0.453 0.395l-1.676 0c-0.178 0-0.316-0.158-0.316-0.335 0-0.02 0-0.04 0-0.06l2.365-13.465c0.08-0.434 0.494-0.788 0.928-0.788l1.99 0c0.414 0 0.592 0.118 0.75 0.631l2.957 10.133c0.02 0.099 0.059 0.158 0.117 0.158 0.041 0 0.119-0.06 0.139-0.178l1.834-10.37c0.039-0.217 0.217-0.374 0.434-0.374l1.695 0c0.197 0 0.314 0.138 0.314 0.315 0.001 0.021 0.001 0.041 0.001 0.06zM479.088 404.851l-6.348 6.545 3.824 7.137c0.039 0.079 0.059 0.138 0.059 0.197 0 0.138-0.117 0.217-0.334 0.217l-2.484 0c-0.236 0-0.336-0.06-0.414-0.217l-3.332-6.723-1.143 6.545c-0.039 0.217-0.258 0.395-0.475 0.395l-1.951 0c-0.197 0-0.314-0.138-0.314-0.315 0-0.039 0-0.06 0-0.079l2.424-13.879c0.039-0.217 0.256-0.374 0.473-0.374l1.953 0c0.197 0 0.314 0.118 0.314 0.296 0 0.039 0 0.059 0 0.078l-1.064 6.072 5.777-6.289c0.117-0.138 0.275-0.157 0.492-0.157l2.404 0c0.238 0 0.336 0.078 0.336 0.197 0 0.098-0.078 0.236-0.197 0.354zM484.035 404.673l-2.443 13.879c-0.039 0.217-0.258 0.395-0.475 0.395l-1.951 0c-0.197 0-0.314-0.138-0.314-0.315 0-0.039 0-0.06 0-0.079l2.443-13.879c0.039-0.217 0.236-0.374 0.453-0.374l1.953 0c0.197 0 0.334 0.118 0.334 0.315 0 0.019 0 0.039 0 0.058zM498.072 404.673l-2.385 13.484c-0.08 0.435-0.494 0.789-0.928 0.789l-1.854 0c-0.473 0-0.887 0-1.084-0.71l-2.818-9.601c-0.039-0.118-0.08-0.158-0.139-0.158-0.059 0-0.117 0.04-0.137 0.158l-1.736 9.916c-0.039 0.217-0.236 0.395-0.453 0.395l-1.676 0c-0.178 0-0.314-0.158-0.314-0.335 0-0.02 0-0.04 0-0.06l2.365-13.465c0.078-0.434 0.492-0.788 0.926-0.788l1.992 0c0.414 0 0.592 0.118 0.748 0.631l2.957 10.133c0.021 0.099 0.061 0.158 0.119 0.158 0.039 0 0.119-0.06 0.139-0.178l1.832-10.37c0.041-0.217 0.217-0.374 0.434-0.374l1.695 0c0.197 0 0.316 0.138 0.316 0.315 0.001 0.021 0.001 0.041 0.001 0.06zM509.467 404.871l-0.256 1.459c-0.039 0.197-0.197 0.354-0.395 0.354-0.02 0-0.02 0-0.039 0-1.281-0.118-2.406-0.196-3.865-0.196-1.084 0-2.326 0.335-2.326 1.655 0 0.513 0.336 0.888 1.32 1.499l2.131 1.32c1.596 0.985 2.09 2.247 2.09 3.371 0 3.45-2.721 4.771-5.955 4.771-1.479 0-2.523-0.139-3.43-0.355-0.158-0.039-0.316-0.157-0.316-0.335 0-0.02 0-0.039 0-0.06l0.258-1.419c0.039-0.197 0.217-0.375 0.434-0.375 0.02 0 0.02 0 0.039 0 0.789 0.099 2.74 0.197 3.469 0.197 1.381 0 2.604-0.473 2.604-2.05 0-0.513-0.316-0.967-1.342-1.656l-2.326-1.558c-1.34-0.887-1.734-2.228-1.734-3.193 0-3.312 2.818-4.16 5.619-4.16 1.301 0 3.074 0.197 3.727 0.355 0.156 0.039 0.295 0.157 0.295 0.315-0.002 0.022-0.002 0.041-0.002 0.061z" fill="#231f20"/></g></svg>