<svg xmlns:svg="http://www.w3.org/2000/svg" xmlns="http://www.w3.org/2000/svg" version="1.1" x="0" y="0" width="450.687" height="140.625" viewBox="0 0 450.687 140.625" enable-background="new 0 0 595.28 841.89" xml:space="preserve"><style>.s0{fill:#231f20;opacity:0.5;}.s1{fill:#f78d0a;}.s2{fill:#231f20;opacity:0.3;}.s3{fill:#231f20;}</style><g transform="translate(-86.461146,-290.4895)"><path d="m247.794 387.27c-2.529 0-5.241-0.244-6.491-0.457-0.579-0.092-0.884-0.366-0.884-1.067l0-20.142c0-0.701 0.305-0.975 0.884-1.066 1.25-0.213 3.961-0.458 6.491-0.458 6.064 0 9.72 3.2 9.72 9.629l0 3.931c0.001 6.43-3.656 9.63-9.72 9.63zm4.51-13.56c0-4.114-1.768-5.211-4.51-5.211-0.762 0-1.737 0.031-2.164 0.061l0 14.23c0.427 0.03 1.402 0.061 2.164 0.061 2.742 0 4.51-1.097 4.51-5.211l0-3.93zM274.431 386.874c-1.066 0.152-2.621 0.396-5.912 0.396-3.931 0-7.405-1.006-7.405-6.552l0-10.117c0-5.545 3.504-6.521 7.435-6.521 3.291 0 4.815 0.244 5.881 0.396 0.426 0.061 0.609 0.213 0.609 0.609l0 2.834c0 0.335-0.274 0.609-0.609 0.609l-6.186 0c-1.432 0-1.95 0.487-1.95 2.072l0 2.773 7.893 0c0.335 0 0.609 0.274 0.609 0.61l0 2.895c0 0.335-0.274 0.609-0.609 0.609l-7.893 0 0 3.23c0 1.584 0.518 2.072 1.95 2.072l6.186 0c0.335 0 0.609 0.274 0.609 0.609l0 2.834c0.002 0.398-0.182 0.581-0.608 0.642zM286.501 379.073c-0.731 0-1.707-0.061-2.468-0.091l0 7.405c0 0.335-0.274 0.609-0.609 0.609l-3.931 0c-0.335 0-0.61-0.244-0.61-0.579l0-20.477c0-1.036 0.427-1.31 1.372-1.462 1.554-0.244 3.992-0.396 6.186-0.396 4.602 0 9.142 1.615 9.142 7.344l0 0.274c-0.001 5.697-4.541 7.373-9.082 7.373zm3.9-7.649c0-2.163-1.341-3.017-3.9-3.017-0.427 0-2.103 0.061-2.468 0.091l0 6.216c0.335 0.031 2.133 0.061 2.468 0.061 2.712 0 3.9-1.005 3.9-3.078l0-0.273zM311.949 386.874c-1.066 0.152-2.621 0.396-5.912 0.396-3.93 0-7.404-1.006-7.404-6.552l0-10.117c0-5.545 3.504-6.521 7.436-6.521 3.291 0 4.814 0.244 5.881 0.396 0.426 0.061 0.609 0.213 0.609 0.609l0 2.834c0 0.335-0.274 0.609-0.609 0.609l-6.186 0c-1.433 0-1.951 0.487-1.951 2.072l0 2.773 7.893 0c0.336 0 0.609 0.274 0.609 0.61l0 2.895c0 0.335-0.273 0.609-0.609 0.609l-7.893 0 0 3.23c0 1.584 0.519 2.072 1.951 2.072l6.186 0c0.335 0 0.609 0.274 0.609 0.609l0 2.834c0 0.398-0.184 0.581-0.61 0.642zM333.161 386.996l-2.986 0c-0.64 0-1.097-0.122-1.585-0.945l-6.947-12.006c-0.121-0.183-0.183-0.244-0.273-0.244-0.092 0-0.152 0.061-0.152 0.244l0 12.341c0 0.335-0.275 0.609-0.61 0.609l-3.595 0c-0.336 0-0.61-0.274-0.61-0.609l0-20.873c0-0.64 0.519-1.158 1.158-1.158l3.077 0c0.609 0 0.914 0.305 1.28 0.945l7.222 12.554c0.122 0.183 0.152 0.244 0.244 0.244 0.061 0 0.152-0.061 0.152-0.274l0-12.89c0-0.335 0.273-0.579 0.609-0.579l3.596 0c0.335 0 0.609 0.244 0.609 0.579l0 20.904c0 0.64-0.549 1.158-1.189 1.158zM345.994 387.27c-2.529 0-5.241-0.244-6.49-0.457-0.579-0.092-0.885-0.366-0.885-1.067l0-20.142c0-0.701 0.306-0.975 0.885-1.066 1.249-0.213 3.961-0.458 6.49-0.458 6.063 0 9.721 3.2 9.721 9.629l0 3.931c0 6.43-3.657 9.63-9.721 9.63zm4.51-13.56c0-4.114-1.768-5.211-4.51-5.211-0.762 0-1.737 0.031-2.164 0.061l0 14.23c0.427 0.03 1.402 0.061 2.164 0.061 2.742 0 4.51-1.097 4.51-5.211l0-3.93zM372.63 386.874c-1.066 0.152-2.62 0.396-5.911 0.396-3.931 0-7.404-1.006-7.404-6.552l0-10.117c0-5.545 3.504-6.521 7.435-6.521 3.291 0 4.814 0.244 5.881 0.396 0.427 0.061 0.609 0.213 0.609 0.609l0 2.834c0 0.335-0.273 0.609-0.609 0.609l-6.186 0c-1.432 0-1.95 0.487-1.95 2.072l0 2.773 7.893 0c0.335 0 0.609 0.274 0.609 0.61l0 2.895c0 0.335-0.274 0.609-0.609 0.609l-7.893 0 0 3.23c0 1.584 0.519 2.072 1.95 2.072l6.186 0c0.336 0 0.609 0.274 0.609 0.609l0 2.834c-0.001 0.398-0.183 0.581-0.61 0.642zM393.843 386.996l-2.986 0c-0.64 0-1.097-0.122-1.585-0.945l-6.947-12.006c-0.122-0.183-0.183-0.244-0.274-0.244-0.091 0-0.152 0.061-0.152 0.244l0 12.341c0 0.335-0.274 0.609-0.609 0.609l-3.596 0c-0.335 0-0.609-0.274-0.609-0.609l0-20.873c0-0.64 0.519-1.158 1.158-1.158l3.077 0c0.61 0 0.915 0.305 1.28 0.945l7.222 12.554c0.122 0.183 0.152 0.244 0.244 0.244 0.061 0 0.152-0.061 0.152-0.274l0-12.89c0-0.335 0.274-0.579 0.609-0.579l3.596 0c0.335 0 0.609 0.244 0.609 0.579l0 20.904c-0.001 0.64-0.55 1.158-1.189 1.158zM412.343 386.752c-0.64 0.213-2.407 0.518-4.54 0.518-4.632 0-9.02-2.438-9.02-9.69l0-3.839c0-7.252 4.388-9.66 9.02-9.66 2.133 0 3.9 0.305 4.54 0.518 0.427 0.122 0.671 0.244 0.671 0.67l0 2.956c0 0.366-0.184 0.609-0.579 0.609-0.03 0-0.062 0-0.092 0-1.158-0.091-2.834-0.244-4.51-0.244-2.103 0-3.778 1.097-3.778 5.149l0 3.839c0 4.053 1.676 5.15 3.778 5.15 1.676 0 3.352-0.152 4.51-0.244 0.03 0 0.062 0 0.092 0 0.396 0 0.579 0.244 0.579 0.609l0 2.956c0 0.429-0.244 0.581-0.671 0.703zM433.312 365.025l-4.602 10.543c-0.609 1.401-1.249 2.042-1.98 2.346l0 8.471c0 0.335-0.274 0.609-0.609 0.609l-3.992 0c-0.335 0-0.609-0.274-0.609-0.609l0-8.471c-0.731-0.305-1.401-0.945-2.011-2.346l-4.602-10.543c-0.03-0.061-0.03-0.152-0.03-0.213 0-0.244 0.183-0.457 0.487-0.457l4.389 0c0.305 0 0.518 0.244 0.609 0.518l3.291 8.593c0.152 0.396 0.243 0.457 0.457 0.457 0.213 0 0.305-0.061 0.457-0.457l3.291-8.593c0.091-0.274 0.305-0.518 0.609-0.518l4.388 0c0.305 0 0.487 0.213 0.487 0.457 0 0.061 0 0.152-0.03 0.213zM441.542 379.5l-5.911 0c-0.335 0-0.609-0.213-0.609-0.548l0-2.438c0-0.335 0.274-0.579 0.609-0.579l5.911 0c0.336 0 0.609 0.244 0.609 0.579l0 2.438c0 0.334-0.273 0.548-0.609 0.548z" class="s0"/><path d="m458.364 386.752c-0.64 0.213-2.407 0.518-4.54 0.518-4.632 0-9.02-2.438-9.02-9.69l0-3.839c0-7.252 4.388-9.66 9.02-9.66 2.133 0 3.9 0.305 4.54 0.518 0.427 0.122 0.671 0.244 0.671 0.67l0 2.956c0 0.366-0.184 0.609-0.579 0.609-0.03 0-0.062 0-0.092 0-1.158-0.091-2.834-0.244-4.51-0.244-2.103 0-3.778 1.097-3.778 5.149l0 3.839c0 4.053 1.676 5.15 3.778 5.15 1.676 0 3.352-0.152 4.51-0.244 0.03 0 0.062 0 0.092 0 0.396 0 0.579 0.244 0.579 0.609l0 2.956c0 0.429-0.244 0.581-0.671 0.703zM479.76 386.996l-3.992 0c-0.335 0-0.609-0.274-0.609-0.609l0-8.807-7.526 0 0 8.807c0 0.335-0.274 0.609-0.609 0.609l-3.992 0c-0.335 0-0.609-0.274-0.609-0.609l0-21.452c0-0.335 0.274-0.579 0.609-0.579l3.992 0c0.335 0 0.609 0.244 0.609 0.579l0 8.105 7.526 0 0-8.105c0-0.335 0.274-0.579 0.609-0.579l3.992 0c0.335 0 0.609 0.244 0.609 0.579l0 21.452c0 0.334-0.274 0.609-0.609 0.609zM497.863 386.874c-1.066 0.152-2.62 0.396-5.911 0.396-3.931 0-7.404-1.006-7.404-6.552l0-10.117c0-5.545 3.504-6.521 7.435-6.521 3.291 0 4.814 0.244 5.881 0.396 0.427 0.061 0.609 0.213 0.609 0.609l0 2.834c0 0.335-0.273 0.609-0.609 0.609l-6.186 0c-1.432 0-1.95 0.487-1.95 2.072l0 2.773 7.893 0c0.335 0 0.609 0.274 0.609 0.61l0 2.895c0 0.335-0.274 0.609-0.609 0.609l-7.893 0 0 3.23c0 1.584 0.519 2.072 1.95 2.072l6.186 0c0.336 0 0.609 0.274 0.609 0.609l0 2.834c0 0.398-0.183 0.581-0.61 0.642zM515.358 386.752c-0.64 0.213-2.407 0.518-4.54 0.518-4.632 0-9.02-2.438-9.02-9.69l0-3.839c0-7.252 4.388-9.66 9.02-9.66 2.133 0 3.9 0.305 4.54 0.518 0.427 0.122 0.671 0.244 0.671 0.67l0 2.956c0 0.366-0.184 0.609-0.579 0.609-0.03 0-0.062 0-0.092 0-1.158-0.091-2.834-0.244-4.51-0.244-2.103 0-3.778 1.097-3.778 5.149l0 3.839c0 4.053 1.676 5.15 3.778 5.15 1.676 0 3.352-0.152 4.51-0.244 0.03 0 0.062 0 0.092 0 0.396 0 0.579 0.244 0.579 0.609l0 2.956c0 0.429-0.244 0.581-0.671 0.703zM536.996 365.117l-7.252 10.3 7.283 10.939c0.091 0.122 0.121 0.244 0.121 0.335 0 0.183-0.152 0.305-0.426 0.305l-5.241 0c-0.366 0-0.519-0.183-0.671-0.427l-6.186-10.056 0 9.873c0 0.335-0.274 0.609-0.609 0.609l-3.992 0c-0.335 0-0.609-0.274-0.609-0.609l0-21.452c0-0.335 0.274-0.579 0.609-0.579l3.992 0c0.335 0 0.609 0.244 0.609 0.579l0 9.69 6.704-9.903c0.152-0.244 0.335-0.366 0.67-0.366l4.662 0c0.335 0 0.487 0.152 0.487 0.335 0.001 0.122-0.059 0.274-0.151 0.427z" fill="#f78d0a"/><path d="m154.408 304.17 0-13.681c-34.422 5.059-61.78 31.821-67.693 65.957l13.769 0c5.594-26.652 26.983-47.491 53.924-52.276z" class="s0"/><path d="m154.408 316.595 0-12.425c-26.941 4.785-48.331 25.625-53.924 52.276l12.512 0c5.176-19.907 21.216-35.427 41.413-39.851z" class="s2"/><path d="m193.248 350.883-10.206 10.229c0.299 0.58 0.641 1.122 0.89 1.747 0.94 2.352 1.41 4.924 1.41 7.702l0 0.184c0 2.842-0.471 5.41-1.41 7.703-0.935 2.302-2.235 4.291-3.895 5.982-1.664 1.696-3.674 2.99-6.023 3.895-2.361 0.906-4.961 1.361-7.799 1.361l-10.78 0 0-0.902-13.469 13.502 24.249 0c4.955 0 9.499-0.818 13.642-2.447 4.138-1.634 7.704-3.865 10.692-6.714 2.994-2.837 5.303-6.185 6.935-10.058 1.631-3.865 2.448-8.033 2.448-12.506l0-0.176c0-4.472-0.817-8.625-2.448-12.467-1.096-2.574-2.526-4.906-4.235-7.035z" fill="#f78d0a"/><path d="m155.433 351.44 10.78 0c2.838 0 5.439 0.468 7.799 1.405 2.349 0.938 4.359 2.254 6.023 3.94 1.218 1.242 2.175 2.728 3.004 4.327l10.206-10.229c-0.836-1.04-1.717-2.046-2.701-2.978-2.987-2.835-6.554-5.055-10.692-6.662-4.142-1.599-8.686-2.4-13.642-2.4l-24.741 0 0 63.444 0.492 0 13.469-13.502 0-37.343z" style="fill:#f78d0a;opacity:0.7"/><path d="m180.626 304.683 0 12.546c11.174 3.022 20.915 9.491 28.067 18.173l8.652-8.674c-9.347-10.95-22.146-18.865-36.719-22.045z" class="s2"/><path d="m180.626 290.902 0 13.782c14.573 3.18 27.372 11.096 36.718 22.045l9.557-9.58c-11.787-13.44-27.945-22.951-46.275-26.247zM100.178 382.661l-13.717 0c2.951 19.245 12.723 36.219 26.743 48.453l9.551-9.574c-11.524-9.793-19.705-23.402-22.577-38.879z" fill="#f78d0a"/><path d="m112.631 382.661-12.453 0c2.871 15.477 11.053 29.086 22.578 38.879l8.658-8.677c-9.258-7.594-16.015-18.128-18.783-30.202z" class="s2"/><path d="m480.938 406.139-2.477 14.078c-0.041 0.205-0.225 0.307-0.409 0.307l-2.066 0c-0.164 0-0.246-0.143-0.246-0.327 0-0.021 0-0.062 0-0.082l1.679-9.515c0-0.041 0.021-0.082 0.021-0.123 0-0.062-0.021-0.082-0.041-0.082-0.041 0-0.103 0.062-0.144 0.123l-2.64 3.908c-0.144 0.225-0.45 0.348-0.716 0.348l-2.067 0c-0.266 0-0.511-0.123-0.593-0.348l-1.31-3.908c-0.021-0.062-0.041-0.123-0.082-0.123-0.021 0-0.062 0.062-0.082 0.205l-1.678 9.515c-0.041 0.205-0.225 0.409-0.409 0.409l-2.066 0c-0.164 0-0.287-0.082-0.287-0.246 0-0.021 0-0.041 0-0.062l2.477-14.078c0.081-0.45 0.511-0.818 0.961-0.818l1.576 0c0.327 0 0.593 0.205 0.675 0.491l1.985 6.262c0.062 0.184 0.082 0.286 0.163 0.286 0.082 0 0.164-0.102 0.287-0.286l4.194-6.262c0.185-0.286 0.512-0.491 0.839-0.491l1.78 0c0.409 0 0.696 0.286 0.696 0.675 0.001 0.042-0.02 0.103-0.02 0.144zM492.396 420.524l-2.087 0c-0.184 0-0.307-0.164-0.327-0.348l-0.245-3.888-4.707 0-1.637 3.888c-0.082 0.184-0.266 0.348-0.45 0.348l-2.251 0c-0.184 0-0.307-0.103-0.307-0.266 0-0.061 0.021-0.123 0.041-0.184l5.606-12.83c0.839-1.903 2.087-2.087 3.213-2.087 1.043 0 2.332 0.369 2.476 2.087l1.104 12.83c0 0.021 0 0.021 0 0.041 0 0.225-0.183 0.409-0.429 0.409zm-3.212-12.646c-0.021-0.246-0.062-0.328-0.267-0.328-0.204 0-0.286 0.082-0.389 0.328l-2.537 6.077 3.602 0-0.409-6.077zM508.662 405.771l-5.606 12.83c-0.839 1.903-2.332 2.087-3.212 2.087-0.88 0-2.312-0.184-2.477-2.087l-1.104-12.83c0-0.021 0-0.021 0-0.041 0-0.225 0.204-0.409 0.43-0.409l2.107 0c0.185 0 0.307 0.164 0.327 0.348l0.798 12.298c0.021 0.246 0.062 0.327 0.267 0.327 0.204 0 0.286-0.082 0.389-0.327l5.136-12.298c0.082-0.184 0.267-0.348 0.45-0.348l2.23 0c0.185 0 0.307 0.123 0.307 0.286-0.001 0.041-0.021 0.102-0.042 0.164zM519.711 405.873l-0.226 1.31c-0.04 0.225-0.266 0.409-0.49 0.409l-4.175 0c-1.187 0-1.678 0.409-1.923 1.76l-0.39 2.21 5.546 0c0.204 0 0.348 0.164 0.348 0.348 0 0.021 0 0.021 0 0.041l0 0.021-0.266 1.473c-0.041 0.225-0.267 0.41-0.491 0.41l-5.546 0-0.45 2.639c-0.041 0.266-0.061 0.491-0.061 0.675 0 0.819 0.409 1.084 1.37 1.084l4.175 0c0.204 0 0.327 0.144 0.327 0.328 0 0.021 0 0.041 0 0.062l0 0.021-0.225 1.31c-0.041 0.286-0.185 0.389-0.491 0.43-0.676 0.102-1.494 0.286-3.929 0.286-2.312 0-4.072-0.9-4.072-3.233 0-0.307 0.021-0.614 0.082-0.962l1.248-7.141c0.654-3.683 2.66-4.195 5.463-4.195 2.436 0 3.213 0.185 3.848 0.287 0.245 0.041 0.348 0.103 0.348 0.287 0 0.038-0.02 0.079-0.02 0.14zM534.014 405.709l-2.476 13.996c-0.082 0.45-0.512 0.818-0.962 0.818l-1.924 0c-0.49 0-0.92 0-1.125-0.737l-2.926-9.965c-0.041-0.123-0.082-0.164-0.144-0.164-0.062 0-0.123 0.041-0.144 0.164l-1.801 10.292c-0.04 0.225-0.245 0.409-0.47 0.409l-1.739 0c-0.185 0-0.328-0.164-0.328-0.348 0-0.021 0-0.041 0-0.062l2.456-13.976c0.081-0.45 0.511-0.818 0.961-0.818l2.067 0c0.43 0 0.613 0.123 0.777 0.655l3.069 10.517c0.021 0.103 0.062 0.164 0.123 0.164 0.041 0 0.122-0.062 0.143-0.184l1.903-10.763c0.041-0.225 0.225-0.389 0.45-0.389l1.76 0c0.204 0 0.327 0.143 0.327 0.327 0.003 0.023 0.003 0.044 0.003 0.064z" fill="#231f20"/></g></svg>