<svg xmlns:svg="http://www.w3.org/2000/svg" xmlns="http://www.w3.org/2000/svg" version="1.1" x="0" y="0" width="429.795" height="140.625" viewBox="0 0 429.795 140.625" enable-background="new 0 0 595.28 841.89" xml:space="preserve"><style>.s0{fill:#231f20;opacity:0.5;}.s1{fill:#f78d0a;}.s2{fill:#231f20;opacity:0.3;}.s3{fill:#231f20;}</style><g transform="translate(-89.392146,-297.94841)"><path d="m245.722 393.274c-2.391 0-4.955-0.23-6.136-0.432-0.547-0.086-0.835-0.346-0.835-1.008l0-19.042c0-0.663 0.288-0.922 0.835-1.008 1.181-0.202 3.745-0.432 6.136-0.432 5.733 0 9.19 3.025 9.19 9.104l0 3.716c0 6.078-3.457 9.102-9.19 9.102zm4.264-12.819c0-3.889-1.671-4.926-4.264-4.926-0.72 0-1.642 0.029-2.045 0.058l0 13.454c0.403 0.029 1.325 0.058 2.045 0.058 2.593 0 4.264-1.037 4.264-4.926l0-3.718zM270.897 392.9c-1.008 0.144-2.478 0.375-5.589 0.375-3.716 0-7-0.951-7-6.194l0-9.564c0-5.243 3.313-6.165 7.029-6.165 3.111 0 4.552 0.23 5.56 0.375 0.403 0.058 0.576 0.202 0.576 0.576l0 2.679c0 0.317-0.259 0.576-0.576 0.576l-5.848 0c-1.354 0-1.844 0.461-1.844 1.959l0 2.622 7.461 0c0.317 0 0.576 0.259 0.576 0.576l0 2.737c0 0.317-0.259 0.576-0.576 0.576l-7.461 0 0 3.054c0 1.498 0.49 1.959 1.844 1.959l5.848 0c0.317 0 0.576 0.259 0.576 0.576l0 2.679c0.001 0.373-0.172 0.546-0.576 0.604zM282.303 385.525c-0.691 0-1.613-0.058-2.333-0.086l0 7c0 0.317-0.259 0.576-0.576 0.576l-3.716 0c-0.317 0-0.576-0.23-0.576-0.547l0-19.359c0-0.979 0.403-1.239 1.296-1.383 1.469-0.23 3.774-0.375 5.848-0.375 4.35 0 8.643 1.527 8.643 6.943l0 0.259c-0.001 5.387-4.293 6.972-8.586 6.972zm3.688-7.231c0-2.045-1.268-2.852-3.688-2.852-0.403 0-1.988 0.058-2.333 0.086l0 5.877c0.317 0.029 2.017 0.058 2.333 0.058 2.564 0 3.688-0.951 3.688-2.91l0-0.259zM306.355 392.9c-1.009 0.144-2.479 0.375-5.59 0.375-3.716 0-7-0.951-7-6.194l0-9.564c0-5.243 3.313-6.165 7.029-6.165 3.111 0 4.552 0.23 5.561 0.375 0.402 0.058 0.576 0.202 0.576 0.576l0 2.679c0 0.317-0.26 0.576-0.576 0.576l-5.849 0c-1.354 0-1.844 0.461-1.844 1.959l0 2.622 7.462 0c0.316 0 0.576 0.259 0.576 0.576l0 2.737c0 0.317-0.26 0.576-0.576 0.576l-7.462 0 0 3.054c0 1.498 0.489 1.959 1.844 1.959l5.849 0c0.316 0 0.576 0.259 0.576 0.576l0 2.679c0.001 0.373-0.173 0.546-0.576 0.604zM326.402 393.015l-2.822 0c-0.605 0-1.037-0.115-1.498-0.893l-6.568-11.351c-0.115-0.173-0.174-0.23-0.26-0.23-0.086 0-0.145 0.058-0.145 0.23l0 11.667c0 0.317-0.259 0.576-0.576 0.576l-3.398 0c-0.317 0-0.576-0.259-0.576-0.576l0-19.734c0-0.605 0.489-1.095 1.094-1.095l2.91 0c0.576 0 0.864 0.288 1.21 0.893l6.827 11.869c0.115 0.173 0.145 0.23 0.23 0.23 0.059 0 0.145-0.058 0.145-0.259l0-12.186c0-0.317 0.26-0.547 0.576-0.547l3.399 0c0.317 0 0.576 0.23 0.576 0.547l0 19.763c0 0.606-0.518 1.096-1.124 1.096zM338.527 393.274c-2.391 0-4.955-0.23-6.136-0.432-0.548-0.086-0.835-0.346-0.835-1.008l0-19.042c0-0.663 0.287-0.922 0.835-1.008 1.181-0.202 3.745-0.432 6.136-0.432 5.733 0 9.19 3.025 9.19 9.104l0 3.716c0.001 6.078-3.456 9.102-9.19 9.102zm4.264-12.819c0-3.889-1.67-4.926-4.264-4.926-0.72 0-1.642 0.029-2.045 0.058l0 13.454c0.403 0.029 1.325 0.058 2.045 0.058 2.594 0 4.264-1.037 4.264-4.926l0-3.718zM363.703 392.9c-1.008 0.144-2.478 0.375-5.589 0.375-3.716 0-7.001-0.951-7.001-6.194l0-9.564c0-5.243 3.313-6.165 7.029-6.165 3.111 0 4.553 0.23 5.561 0.375 0.403 0.058 0.576 0.202 0.576 0.576l0 2.679c0 0.317-0.26 0.576-0.576 0.576l-5.848 0c-1.354 0-1.844 0.461-1.844 1.959l0 2.622 7.461 0c0.316 0 0.576 0.259 0.576 0.576l0 2.737c0 0.317-0.26 0.576-0.576 0.576l-7.461 0 0 3.054c0 1.498 0.489 1.959 1.844 1.959l5.848 0c0.316 0 0.576 0.259 0.576 0.576l0 2.679c0 0.373-0.173 0.546-0.576 0.604zM383.751 393.015l-2.823 0c-0.605 0-1.037-0.115-1.498-0.893l-6.568-11.351c-0.115-0.173-0.173-0.23-0.26-0.23-0.086 0-0.144 0.058-0.144 0.23l0 11.667c0 0.317-0.259 0.576-0.576 0.576l-3.399 0c-0.316 0-0.576-0.259-0.576-0.576l0-19.734c0-0.605 0.49-1.095 1.095-1.095l2.909 0c0.576 0 0.865 0.288 1.211 0.893l6.827 11.869c0.115 0.173 0.144 0.23 0.23 0.23 0.058 0 0.144-0.058 0.144-0.259l0-12.186c0-0.317 0.26-0.547 0.576-0.547l3.4 0c0.316 0 0.576 0.23 0.576 0.547l0 19.763c0 0.606-0.52 1.096-1.124 1.096zM401.234 392.785c-0.605 0.202-2.275 0.49-4.293 0.49-4.379 0-8.527-2.305-8.527-9.161l0-3.63c0-6.856 4.148-9.132 8.527-9.132 2.018 0 3.688 0.288 4.293 0.49 0.403 0.115 0.634 0.23 0.634 0.634l0 2.794c0 0.346-0.173 0.576-0.548 0.576-0.028 0-0.057 0-0.086 0-1.095-0.086-2.68-0.23-4.264-0.23-1.988 0-3.572 1.037-3.572 4.869l0 3.63c0 3.832 1.584 4.869 3.572 4.869 1.584 0 3.169-0.144 4.264-0.23 0.029 0 0.058 0 0.086 0 0.375 0 0.548 0.23 0.548 0.576l0 2.794c0 0.401-0.23 0.545-0.634 0.661zM421.053 372.244l-4.351 9.968c-0.576 1.325-1.181 1.93-1.872 2.218l0 8.009c0 0.317-0.26 0.576-0.576 0.576l-3.774 0c-0.317 0-0.576-0.259-0.576-0.576l0-8.009c-0.691-0.288-1.325-0.893-1.901-2.218l-4.35-9.968c-0.029-0.058-0.029-0.144-0.029-0.202 0-0.23 0.173-0.432 0.461-0.432l4.148 0c0.288 0 0.49 0.23 0.576 0.49l3.111 8.124c0.145 0.375 0.23 0.432 0.432 0.432 0.202 0 0.289-0.058 0.433-0.432l3.111-8.124c0.087-0.259 0.288-0.49 0.576-0.49l4.148 0c0.288 0 0.461 0.202 0.461 0.432 0 0.058 0 0.145-0.028 0.202zM428.827 385.928l-5.589 0c-0.316 0-0.576-0.202-0.576-0.519l0-2.305c0-0.317 0.26-0.547 0.576-0.547l5.589 0c0.317 0 0.576 0.23 0.576 0.547l0 2.305c0 0.318-0.258 0.519-0.576 0.519z" class="s0"/><path d="m444.728 392.785c-0.604 0.202-2.276 0.49-4.292 0.49-4.379 0-8.527-2.305-8.527-9.161l0-3.63c0-6.856 4.148-9.132 8.527-9.132 2.016 0 3.688 0.288 4.292 0.49 0.403 0.115 0.634 0.23 0.634 0.634l0 2.794c0 0.346-0.173 0.576-0.547 0.576-0.029 0-0.059 0-0.087 0-1.095-0.086-2.679-0.23-4.264-0.23-1.987 0-3.572 1.037-3.572 4.869l0 3.63c0 3.832 1.585 4.869 3.572 4.869 1.585 0 3.169-0.144 4.264-0.23 0.028 0 0.058 0 0.087 0 0.374 0 0.547 0.23 0.547 0.576l0 2.794c-0.001 0.401-0.231 0.545-0.634 0.661zM464.949 393.015l-3.774 0c-0.317 0-0.576-0.259-0.576-0.576l0-8.326-7.116 0 0 8.326c0 0.317-0.259 0.576-0.576 0.576l-3.773 0c-0.316 0-0.576-0.259-0.576-0.576l0-20.281c0-0.317 0.26-0.547 0.576-0.547l3.773 0c0.317 0 0.576 0.23 0.576 0.547l0 7.663 7.116 0 0-7.663c0-0.317 0.259-0.547 0.576-0.547l3.774 0c0.316 0 0.576 0.23 0.576 0.547l0 20.281c0 0.317-0.259 0.576-0.576 0.576zM482.058 392.9c-1.009 0.144-2.478 0.375-5.589 0.375-3.717 0-7-0.951-7-6.194l0-9.564c0-5.243 3.312-6.165 7.029-6.165 3.111 0 4.551 0.23 5.56 0.375 0.403 0.058 0.576 0.202 0.576 0.576l0 2.679c0 0.317-0.259 0.576-0.576 0.576l-5.849 0c-1.354 0-1.844 0.461-1.844 1.959l0 2.622 7.462 0c0.317 0 0.576 0.259 0.576 0.576l0 2.737c0 0.317-0.259 0.576-0.576 0.576l-7.462 0 0 3.054c0 1.498 0.49 1.959 1.844 1.959l5.849 0c0.317 0 0.576 0.259 0.576 0.576l0 2.679c0 0.373-0.173 0.546-0.576 0.604zM498.591 392.785c-0.604 0.202-2.276 0.49-4.292 0.49-4.379 0-8.527-2.305-8.527-9.161l0-3.63c0-6.856 4.148-9.132 8.527-9.132 2.016 0 3.688 0.288 4.292 0.49 0.403 0.115 0.634 0.23 0.634 0.634l0 2.794c0 0.346-0.173 0.576-0.547 0.576-0.029 0-0.059 0-0.087 0-1.095-0.086-2.679-0.23-4.264-0.23-1.987 0-3.572 1.037-3.572 4.869l0 3.63c0 3.832 1.585 4.869 3.572 4.869 1.585 0 3.169-0.144 4.264-0.23 0.028 0 0.058 0 0.087 0 0.374 0 0.547 0.23 0.547 0.576l0 2.794c0 0.401-0.231 0.545-0.634 0.661zM519.043 372.331l-6.857 9.737 6.886 10.342c0.087 0.115 0.115 0.23 0.115 0.317 0 0.173-0.144 0.288-0.403 0.288l-4.955 0c-0.346 0-0.49-0.173-0.634-0.403l-5.849-9.507 0 9.334c0 0.317-0.259 0.576-0.576 0.576l-3.773 0c-0.316 0-0.576-0.259-0.576-0.576l0-20.281c0-0.317 0.26-0.547 0.576-0.547l3.773 0c0.317 0 0.576 0.23 0.576 0.547l0 9.161 6.338-9.363c0.145-0.23 0.317-0.346 0.635-0.346l4.407 0c0.317 0 0.461 0.144 0.461 0.317 0 0.115-0.058 0.26-0.144 0.404z" fill="#f78d0a"/><path d="m157.338 311.629 0-13.681c-34.422 5.059-61.779 31.82-67.693 65.957l13.768 0c5.595-26.651 26.983-47.49 53.925-52.276z" class="s0"/><path d="m157.338 324.055 0-12.425c-26.942 4.786-48.33 25.625-53.925 52.276l12.512 0c5.176-19.908 21.216-35.427 41.412-39.851z" class="s2"/><path d="m196.178 358.342-10.207 10.229c0.299 0.58 0.641 1.122 0.89 1.747 0.94 2.352 1.411 4.925 1.411 7.703l0 0.184c0 2.842-0.471 5.41-1.411 7.703-0.935 2.303-2.234 4.291-3.894 5.982-1.664 1.695-3.674 2.99-6.024 3.894-2.361 0.906-4.962 1.362-7.8 1.362l-10.78 0 0-0.902-13.469 13.502 24.249 0c4.955 0 9.499-0.818 13.642-2.447 4.137-1.634 7.705-3.864 10.691-6.714 2.995-2.836 5.303-6.185 6.935-10.058 1.632-3.865 2.448-8.034 2.448-12.506l0-0.176c0-4.472-0.816-8.626-2.448-12.467-1.095-2.574-2.525-4.907-4.234-7.035z" fill="#f78d0a"/><path d="m158.364 358.9 10.78 0c2.838 0 5.438 0.468 7.8 1.405 2.35 0.938 4.359 2.253 6.024 3.939 1.217 1.242 2.174 2.728 3.004 4.327l10.207-10.229c-0.836-1.039-1.717-2.046-2.702-2.979-2.986-2.834-6.554-5.054-10.691-6.661-4.141-1.599-8.686-2.4-13.642-2.4l-24.74 0 0 63.445 0.491 0 13.469-13.502 0-37.344z" style="fill:#f78d0a;opacity:0.7"/><path d="m183.557 312.143 0 12.546c11.174 3.022 20.914 9.491 28.067 18.173l8.652-8.674c-9.348-10.951-22.147-18.866-36.719-22.045z" class="s2"/><path d="m183.557 298.361 0 13.782c14.573 3.18 27.372 11.095 36.718 22.044l9.557-9.581c-11.788-13.439-27.946-22.95-46.275-26.246zM103.109 390.12l-13.717 0c2.95 19.244 12.723 36.22 26.743 48.454l9.552-9.575c-11.525-9.793-19.706-23.402-22.578-38.879z" fill="#f78d0a"/><path d="m115.562 390.12-12.453 0c2.871 15.477 11.053 29.086 22.578 38.879l8.657-8.678c-9.258-7.593-16.014-18.127-18.782-30.201z" class="s2"/><path d="m478.525 410.704-1.547 8.681c-0.773 4.33-3.035 5.471-6.225 5.471-2.744 0-4.523-1.275-4.523-4.06 0-0.425 0.02-0.909 0.115-1.411l1.547-8.681c0.039-0.212 0.232-0.367 0.445-0.367l1.914 0c0.193 0 0.328 0.135 0.328 0.309 0 0.02 0 0.039 0 0.058l-1.547 8.681c-0.096 0.561-0.154 1.044-0.154 1.45 0 1.295 0.6 1.798 2.223 1.798 2.088 0 2.785-0.967 3.191-3.248l1.545-8.681c0.039-0.212 0.232-0.367 0.445-0.367l1.914 0c0.193 0 0.328 0.135 0.328 0.309 0.001 0.019 0.001 0.039 0.001 0.058zM490.592 410.704l-0.27 1.527c-0.039 0.213-0.232 0.348-0.445 0.348l-3.383 0-2.068 11.735c-0.039 0.213-0.252 0.387-0.465 0.387l-1.914 0c-0.193 0-0.309-0.135-0.309-0.309 0-0.039 0-0.059 0-0.078l2.068-11.735-3.383 0c-0.193 0-0.328-0.116-0.328-0.29 0-0.02 0-0.039 0-0.058l0.27-1.527c0.039-0.212 0.232-0.367 0.445-0.367l9.453 0c0.193 0 0.328 0.116 0.328 0.309 0.001 0.019 0.001 0.039 0.001 0.058zM495.215 410.704l-2.396 13.61c-0.039 0.213-0.252 0.387-0.465 0.387l-1.914 0c-0.193 0-0.309-0.135-0.309-0.309 0-0.039 0-0.059 0-0.078l2.396-13.61c0.039-0.212 0.232-0.367 0.445-0.367l1.914 0c0.193 0 0.328 0.116 0.328 0.309 0.001 0.019 0.001 0.039 0.001 0.058zM504.09 422.941l-0.213 1.238c-0.037 0.27-0.174 0.348-0.463 0.405-0.6 0.136-2.301 0.271-3.326 0.271-1.721 0-3.828-0.58-3.828-3.054 0-0.271 0-0.58 0.059-0.909l1.779-10.169c0.039-0.213 0.25-0.387 0.463-0.387l1.914 0c0.193 0 0.311 0.135 0.311 0.309 0 0.039 0 0.058 0 0.078l-1.779 10.169c-0.039 0.251-0.059 0.464-0.059 0.657 0 0.754 0.367 1.005 1.277 1.005l3.557 0c0.193 0 0.309 0.136 0.309 0.311-0.001 0.038-0.001 0.056-0.001 0.076zM516.369 410.897l-0.252 1.431c-0.039 0.193-0.193 0.348-0.387 0.348-0.02 0-0.02 0-0.039 0-1.256-0.116-2.357-0.193-3.789-0.193-1.062 0-2.281 0.329-2.281 1.624 0 0.502 0.328 0.87 1.295 1.469l2.088 1.295c1.566 0.966 2.051 2.204 2.051 3.306 0 3.383-2.668 4.678-5.84 4.678-1.449 0-2.475-0.135-3.363-0.348-0.154-0.039-0.309-0.154-0.309-0.328 0-0.02 0-0.039 0-0.059l0.25-1.393c0.039-0.193 0.213-0.367 0.426-0.367 0.02 0 0.02 0 0.039 0 0.773 0.098 2.688 0.193 3.402 0.193 1.354 0 2.551-0.463 2.551-2.01 0-0.502-0.309-0.947-1.314-1.624l-2.281-1.527c-1.314-0.87-1.701-2.185-1.701-3.132 0-3.248 2.766-4.079 5.51-4.079 1.277 0 3.018 0.193 3.654 0.348 0.154 0.039 0.291 0.155 0.291 0.309-0.001 0.02-0.001 0.039-0.001 0.059z" fill="#231f20"/></g></svg>